<?xml version="1.0" encoding="utf-8"?>
<!-- Generator: Adobe Illustrator 24.0.0, SVG Export Plug-In . SVG Version: 6.00 Build 0)  -->
<svg version="1.1" id="Capa_1" xmlns="http://www.w3.org/2000/svg" xmlns:xlink="http://www.w3.org/1999/xlink" x="0px" y="0px"
	 viewBox="0 0 14400 14400" style="enable-background:new 0 0 14400 14400;" xml:space="preserve">
<style type="text/css">
	.st0{fill:#FFFFFF;}
	.st1{display:none;}
	.st2{display:inline;fill:#002D71;}
	.st3{display:inline;fill:#009246;}
	.st4{display:inline;fill:#E3E3E2;}
	.st5{display:inline;fill:#CE2B37;}
	.st6{display:inline;fill:url(#SVGID_1_);}
	.st7{display:inline;fill:url(#SVGID_2_);}
	.st8{display:inline;fill:url(#SVGID_3_);}
	.st9{display:inline;fill:url(#SVGID_4_);}
	.st10{display:inline;fill:url(#SVGID_5_);}
	.st11{display:inline;fill:url(#SVGID_6_);}
	.st12{display:inline;fill:#008FD7;}
	.st13{fill:url(#SVGID_7_);}
	.st14{fill:url(#SVGID_8_);}
	.st15{fill:url(#SVGID_9_);}
	.st16{fill:url(#SVGID_10_);}
	.st17{fill:url(#SVGID_11_);}
	.st18{fill:url(#SVGID_12_);}
	.st19{fill:url(#SVGID_13_);}
	.st20{fill:url(#SVGID_14_);}
	.st21{fill:url(#SVGID_15_);}
	.st22{fill:url(#SVGID_16_);}
	.st23{fill:#465B65;}
	.st24{display:inline;fill-rule:evenodd;clip-rule:evenodd;fill:#010101;}
	.st25{display:inline;fill-rule:evenodd;clip-rule:evenodd;fill:#004AD1;}
	.st26{display:inline;fill-rule:evenodd;clip-rule:evenodd;fill:#980184;}
	.st27{display:inline;fill-rule:evenodd;clip-rule:evenodd;fill:#0091FC;}
	.st28{display:inline;fill-rule:evenodd;clip-rule:evenodd;fill:#FE7D02;}
	.st29{display:inline;fill-rule:evenodd;clip-rule:evenodd;fill:#01AB02;}
	.st30{display:inline;fill-rule:evenodd;clip-rule:evenodd;fill:#FE0000;}
	.st31{display:inline;fill-rule:evenodd;clip-rule:evenodd;fill:#FFE500;}
	.st32{display:inline;fill-rule:evenodd;clip-rule:evenodd;fill:#FFFFFF;}
	.st33{display:inline;fill:#D20515;}
	.st34{display:inline;fill:#FFFFFF;}
	.st35{display:inline;}
	.st36{display:none;fill:#3D195B;}
</style>
<path class="st0" d="M10108.77,12417.82H4205.9c-961.02,0-1740.08-779.06-1740.08-1740.08V3658.26
	c0-961.02,779.06-1740.08,1740.08-1740.08h5902.88c961.02,0,1740.08,779.06,1740.08,1740.08v7019.48
	C11848.85,11638.76,11069.79,12417.82,10108.77,12417.82z"/>
<g class="st1">
	<path class="st2" d="M4345.79,11992.22L4345.79,11992.22c-88.06-37.74-150.95-75.48-188.69-113.22c0-12.58,0-25.16,0-25.16
		l125.79-150.95c0,0,12.58-12.58,25.16,0c100.64,75.47,201.27,113.21,301.91,113.21c125.79,0,188.69-50.32,188.69-138.37
		c0-62.9-37.74-100.64-176.11-125.8h-62.9c-239.01-37.74-364.81-150.95-364.81-352.22c0-100.64,37.74-188.7,113.22-251.59
		c62.9-62.9,176.11-100.64,301.91-100.64c150.95,0,289.33,37.74,389.96,125.8c12.58,0,12.58,12.58,0,25.16l-100.64,150.96
		c-12.58,12.58-12.58,12.58-25.16,12.58c-88.06-62.89-176.11-100.63-264.17-100.63c-100.64,0-163.53,62.9-163.53,125.79
		c0,75.48,62.9,113.22,188.69,125.8l50.32,12.58c251.59,37.74,377.39,150.95,377.39,352.23c0,213.85-176.11,352.22-465.44,352.22
		C4509.32,12029.96,4433.84,12017.38,4345.79,11992.22"/>
	<path class="st2" d="M5226.35,10885.23L5226.35,10885.23c0-12.58,0-12.58,25.16-12.58h742.19c12.58,0,12.58,0,12.58,12.58v176.11
		c0,12.58,0,25.16-12.58,25.16h-503.18c-12.58,0-12.58,0-12.58,12.58v226.43c0,0,0,12.58,12.58,12.58h415.12
		c12.58,0,12.58,0,12.58,12.58v176.11c0,12.58,0,25.16-12.58,25.16h-415.12c-12.58,0-12.58,0-12.58,0v239.01
		c0,12.58,0,12.58,12.58,12.58h503.18c12.58,0,12.58,0,12.58,12.58v188.7c0,12.58,0,12.58-12.58,12.58h-742.19
		c-25.16,0-25.16,0-25.16-12.58V10885.23"/>
	<path class="st2" d="M6849.11,12017.38L6849.11,12017.38c-12.58,0-25.16,0-25.16-12.58l-201.27-427.71h-150.95
		c-12.58,0-12.58,12.58-12.58,12.58v415.13c0,12.58,0,12.58-25.16,12.58h-213.85c-12.58,0-12.58,0-12.58-12.58v-1119.58
		c0-12.58,0-12.58,12.58-12.58h465.44c113.22,0,213.85,37.74,289.33,100.64c62.9,62.9,113.21,150.96,113.21,251.59
		c0,150.95-88.06,264.17-213.85,327.07l239.01,452.86c0,0,0,12.58-25.16,12.58H6849.11 M6673,11375.83L6673,11375.83
		c100.64,0,163.53-62.9,163.53-150.95c0-75.48-62.9-138.38-163.53-138.38h-201.27c-12.58,0-12.58,0-12.58,12.58v264.17
		c0,0,0,12.58,12.58,12.58H6673z"/>
	<path class="st2" d="M7289.39,10885.23L7289.39,10885.23c0-12.58,0-12.58,12.58-12.58h213.85c12.58,0,12.58,0,12.58,12.58v1119.58
		c0,12.58,0,12.58-12.58,12.58h-213.85c-12.58,0-12.58,0-12.58-12.58V10885.23"/>
	<path class="st2" d="M7767.41,10885.23L7767.41,10885.23c0-12.58,12.58-12.58,12.58-12.58h754.77c0,0,12.58,0,12.58,12.58v176.11
		c0,12.58-12.58,25.16-12.58,25.16h-503.18c0,0-12.58,0-12.58,12.58v226.43l12.58,12.58h415.12c12.58,0,25.16,0,25.16,12.58v176.11
		c0,12.58-12.58,25.16-25.16,25.16h-415.12h-12.58v239.01c0,12.58,12.58,12.58,12.58,12.58h503.18c0,0,12.58,0,12.58,12.58v188.7
		c0,12.58-12.58,12.58-12.58,12.58h-754.77c0,0-12.58,0-12.58-12.58V10885.23"/>
	<path class="st2" d="M9478.23,10885.23L9478.23,10885.23c0-12.58,0-12.58,25.16-12.58h201.27c25.16,0,25.16,0,25.16,12.58
		l402.54,1119.58c0,12.58,0,12.58-25.16,12.58h-213.85c-12.58,0-25.16,0-25.16-12.58l-62.9-201.28h-415.13l-62.9,201.28
		c0,12.58,0,12.58-25.16,12.58h-226.43c0,0,0,0,0-12.58L9478.23,10885.23 M9465.65,11589.68h264.17l-125.8-402.55h-12.58
		L9465.65,11589.68z"/>
	<polyline class="st3" points="4219.99,9979.5 6169.81,9979.5 6169.81,10218.51 4219.99,10218.51 4219.99,9979.5 	"/>
	<polyline class="st4" points="6169.81,9979.5 8107.06,9979.5 8107.06,10218.51 6169.81,10218.51 6169.81,9979.5 	"/>
	<polyline class="st5" points="8107.06,9979.5 10056.89,9979.5 10056.89,10218.51 8107.06,10218.51 8107.06,9979.5 	"/>
	<linearGradient id="SVGID_1_" gradientUnits="userSpaceOnUse" x1="6766.7554" y1="5068.8945" x2="7778.895" y2="7824.1631">
		<stop  offset="0" style="stop-color:#0C5EAD"/>
		<stop  offset="1" style="stop-color:#033B82"/>
	</linearGradient>
	<polygon class="st6" points="7138.63,4506.11 7138.63,7656.36 8270.84,7656.36 	"/>
	<linearGradient id="SVGID_2_" gradientUnits="userSpaceOnUse" x1="7426.4399" y1="6336.8643" x2="6543.3198" y2="6072.8389">
		<stop  offset="0" style="stop-color:#0C5EAD"/>
		<stop  offset="1" style="stop-color:#033B82"/>
	</linearGradient>
	<polygon class="st7" points="6005.85,7656.36 7138.63,7656.36 7138.63,4506.61 	"/>
	<linearGradient id="SVGID_3_" gradientUnits="userSpaceOnUse" x1="9681.3438" y1="7314.8369" x2="6969.3931" y2="9060.8877">
		<stop  offset="0" style="stop-color:#0C5EAD"/>
		<stop  offset="1" style="stop-color:#033B82"/>
	</linearGradient>
	<polygon class="st8" points="10030.95,7656.36 7138.63,9428.66 8270.84,7656.36 	"/>
	<linearGradient id="SVGID_4_" gradientUnits="userSpaceOnUse" x1="7814" y1="7467.1719" x2="6812.8276" y2="9200.6826">
		<stop  offset="0" style="stop-color:#0C5EAD"/>
		<stop  offset="1" style="stop-color:#033B82"/>
	</linearGradient>
	<polygon class="st9" points="7138.63,7656.36 8270.84,7656.36 7138.63,9428.66 	"/>
	<linearGradient id="SVGID_5_" gradientUnits="userSpaceOnUse" x1="4636.7822" y1="7341.7031" x2="7263.001" y2="9034.5615">
		<stop  offset="0" style="stop-color:#0C5EAD"/>
		<stop  offset="1" style="stop-color:#033B82"/>
	</linearGradient>
	<polygon class="st10" points="4244,7656.36 7138.63,9428.66 6005.85,7656.36 	"/>
	<linearGradient id="SVGID_6_" gradientUnits="userSpaceOnUse" x1="6624.4761" y1="8492.4199" x2="7293.0952" y2="7851.2788">
		<stop  offset="0" style="stop-color:#0C5EAD"/>
		<stop  offset="1" style="stop-color:#033B82"/>
	</linearGradient>
	<polygon class="st11" points="7138.63,9428.66 7138.63,7656.36 6005.85,7656.36 	"/>
	<path class="st12" d="M10031.73,7656.36L10031.73,7656.36L7729.68,2280.83c-528.34,0-654.14,0-1195.06,0L4245.15,7656.36h1761.13
		L7138.44,4507.4l526.25,1459.22h-526.25l-301.91,905.73h1153.14l280.93,784H10031.73"/>
</g>
<g>
	<g>
		<g>
			
				<radialGradient id="SVGID_7_" cx="8413.5801" cy="9831.5732" r="5031.0503" gradientTransform="matrix(1 0 0 -1 0 14401)" gradientUnits="userSpaceOnUse">
				<stop  offset="0" style="stop-color:#A7BDC8"/>
				<stop  offset="1" style="stop-color:#465B65"/>
			</radialGradient>
			<path class="st13" d="M3915.1,5351.34c111.71-358.34,287.21-651.47,523.7-677.71c452.95-50.31,980.84,709.57,1073.2,1602.83
				c85.39,825.94-107.9,1730.09-560.96,1780.41c-275.76,30.64-531.22-81.69-729.37-510.66c305.66,83.87,693.31-38.99,693.31-38.99
				c137.76-445.84,136.66-1266.08,136.66-1266.08c-283.05-748.75-591.66-1092.52-591.66-1092.52S4148.31,5218.98,3915.1,5351.34z"/>
		</g>
		
			<radialGradient id="SVGID_8_" cx="8413.6455" cy="9831.5869" r="5031.1289" gradientTransform="matrix(1 0 0 -1 0 14401)" gradientUnits="userSpaceOnUse">
			<stop  offset="0" style="stop-color:#A7BDC8"/>
			<stop  offset="1" style="stop-color:#465B65"/>
		</radialGradient>
		<path class="st14" d="M4277.57,7086.89c-178.17,21.43-356.71-243.83-398.63-592.42c-41.94-348.57,68.63-648.59,246.81-669.95
			c178.17-21.49,356.7,243.71,398.63,592.31C4566.35,6765.43,4455.79,7065.38,4277.57,7086.89z"/>
		
			<radialGradient id="SVGID_9_" cx="8413.5771" cy="9831.5674" r="5031.1094" gradientTransform="matrix(1 0 0 -1 0 14401)" gradientUnits="userSpaceOnUse">
			<stop  offset="0" style="stop-color:#A7BDC8"/>
			<stop  offset="1" style="stop-color:#465B65"/>
		</radialGradient>
		<path class="st15" d="M8343.79,5373.51c37.42,326.22-192.18,620.34-512.59,657.06c-320.58,36.8-610.72-197.82-648.02-524.03
			c-37.44-326.08,192.14-620.25,512.63-657.05C8016.33,4812.71,8306.47,5047.42,8343.79,5373.51z"/>
		<g>
			
				<radialGradient id="SVGID_10_" cx="8413.6045" cy="9831.5693" r="5031.0835" gradientTransform="matrix(1 0 0 -1 0 14401)" gradientUnits="userSpaceOnUse">
				<stop  offset="0" style="stop-color:#A7BDC8"/>
				<stop  offset="1" style="stop-color:#465B65"/>
			</radialGradient>
			<path class="st16" d="M9409.57,5255.97c-113.58-990.83-963.61-1707.27-1898.59-1600.08
				c-934.89,107.18-1600.64,997.4-1487.07,1988.31c97.65,852,740.01,1501.13,1512.74,1598.01c0,0-14.84-170.76-34.38-340.81
				c-19.36-169.09-43.36-335.92-43.36-335.92l-202.49,21.66c0,0-233.54-223.25-415.67-482.11
				c-170.36-242.21-290.13-521.24-290.13-521.24s86.29-306.19,200.5-588.03c116.05-286.64,259.82-549.09,259.82-549.09
				s272.63-64.57,554.12-96.87c300.9-34.44,612-36.85,612-36.85s209.94,207.49,384.21,455.32
				c178.61,253.85,321.6,548.03,321.6,548.03s-38.63,280.29-152.97,562.55c-115.94,286.22-307.36,574.49-307.36,574.49
				l-182.07,30.17c0,0,24.2,160.64,36.32,325.6c12.98,173.91,21.09,345.83,21.09,345.83
				C9028.55,6885.72,9507.27,6108.05,9409.57,5255.97z"/>
		</g>
		
			<radialGradient id="SVGID_11_" cx="8413.6113" cy="9831.5752" r="5031.0771" gradientTransform="matrix(1 0 0 -1 0 14401)" gradientUnits="userSpaceOnUse">
			<stop  offset="0" style="stop-color:#A7BDC8"/>
			<stop  offset="1" style="stop-color:#465B65"/>
		</radialGradient>
		<path class="st17" d="M9069.32,3772.8c-430.25-387.31-786.57-690.98-781.54-709.56c2.42-8.98,108.55,36.97,275.56,123.07
			c96.79,49.9,349.17,188.25,624.75,431.23c443.95,391.42,676.92,817.4,671.35,834.4C9851.66,4475.69,9499.68,4160,9069.32,3772.8z"
			/>
		<g>
			
				<radialGradient id="SVGID_12_" cx="8413.6152" cy="9831.5586" r="5031.1123" gradientTransform="matrix(1 0 0 -1 0 14401)" gradientUnits="userSpaceOnUse">
				<stop  offset="0" style="stop-color:#A7BDC8"/>
				<stop  offset="1" style="stop-color:#465B65"/>
			</radialGradient>
			<path class="st18" d="M5982.52,2997.16c-232.18,81.19-430.12,181.96-609.38,288.16c242.13-47.75,711.64-150.7,1148.62-426.24
				C6384.86,2876.57,6163.49,2933.85,5982.52,2997.16z"/>
			
				<radialGradient id="SVGID_13_" cx="8413.6504" cy="9831.5645" r="5031.1758" gradientTransform="matrix(1 0 0 -1 0 14401)" gradientUnits="userSpaceOnUse">
				<stop  offset="0" style="stop-color:#A7BDC8"/>
				<stop  offset="1" style="stop-color:#465B65"/>
			</radialGradient>
			<path class="st19" d="M7558.19,2894.44c-16.83-48.96-312.11-98.45-689.68-74.73c76.21,13.27,156.61,36.44,210.87,70.86
				l-837.18,376.11l-1001.16,262.85c0,0-60.22-4.46-125.18-69.4c-259.97,198.39-425.27,376.73-420.48,418.79
				c9.77,85.69,691.68-72.63,1482.26-344.51C6968.21,3262.64,7586.27,2976,7558.19,2894.44z"/>
		</g>
		
			<radialGradient id="SVGID_14_" cx="8413.5322" cy="9831.5801" r="5031.1841" gradientTransform="matrix(1 0 0 -1 0 14401)" gradientUnits="userSpaceOnUse">
			<stop  offset="0" style="stop-color:#A7BDC8"/>
			<stop  offset="1" style="stop-color:#465B65"/>
		</radialGradient>
		<path class="st20" d="M9809.55,6415.29c103.14-733.8,251.83-1334.25,324.08-1309.31c44.87,15.44,234.38,655.89,129.24,1393.53
			c-87.72,615.66-379.65,1271.02-503.13,1263.63C9683.37,7758.65,9706.19,7149.1,9809.55,6415.29z"/>
		<g>
			
				<radialGradient id="SVGID_15_" cx="8413.6279" cy="9831.5352" r="5031.0547" gradientTransform="matrix(1 0 0 -1 0 14401)" gradientUnits="userSpaceOnUse">
				<stop  offset="0" style="stop-color:#A7BDC8"/>
				<stop  offset="1" style="stop-color:#465B65"/>
			</radialGradient>
			<path class="st21" d="M6514.6,9180.38c-367.87-74.7-552.65-219.04-603.8-419.07c-112.94-441.56,603.6-848.67,1491.35-984.27
				c811.53-123.94,1509.08,136.34,1582.54,438.08c57.08,234.45-52.63,423.3-362.93,627.59c52.37-312.59,14.15-507.66,14.15-507.66
				c-456.55-121.47-1171.32-188.35-1171.32-188.35c-769.04,291.48-1107.27,554.06-1107.27,554.06S6383.4,8961.87,6514.6,9180.38z"/>
		</g>
		
			<radialGradient id="SVGID_16_" cx="8413.6035" cy="9831.4727" r="5030.957" gradientTransform="matrix(1 0 0 -1 0 14401)" gradientUnits="userSpaceOnUse">
			<stop  offset="0" style="stop-color:#A7BDC8"/>
			<stop  offset="1" style="stop-color:#465B65"/>
		</radialGradient>
		<path class="st22" d="M8198.27,8794.1c25.11,157.14-235.52,329.57-582.27,385.03c-346.68,55.47-648.19-26.96-673.26-184.13
			c-25.16-157.11,235.42-329.54,582.17-385.03C7871.62,8554.43,8173.02,8636.88,8198.27,8794.1z"/>
	</g>
	<g>
		<path class="st23" d="M3340.79,11480.39v-1151.23h300.5v889.73H4005v261.51L3340.79,11480.39L3340.79,11480.39z"/>
		<path class="st23" d="M4490.43,11480.39v-1151.23H4791v1151.23H4490.43z"/>
		<path class="st23" d="M5885.07,10287.1c231.42,0,401.18,90.17,520.02,288.55l-240.55,132.23c0,0-78.1-159.23-282.48-159.23
			c-196.95,0-285.48,160.73-285.48,369.65c0,195.37,90.11,351.7,312.51,351.7c127.73,0,244.99-97.7,255.44-204.39h-264.46v-240.52
			h577.12c0,0,0,39.14,0,63.17c0,341.11-157.76,634.17-589.13,634.17c-366.7,0-601.13-280.98-601.13-616.14
			C5286.94,10553.14,5549.98,10287.1,5885.07,10287.1z"/>
		<path class="st23" d="M7263.14,10329.16c0,0,0,473.43,0,706.42c0,153.26,93.21,207.39,207.35,207.39
			c109.71,0,204.39-58.66,204.39-192.38c0-233,0-486.93,0-721.44h303.64c0,0,0,477.91,0,736.46
			c0,262.95-178.94,447.81-514.04,447.81c-253.84,0-501.86-132.23-501.86-414.77c0-266.04,0-769.5,0-769.5h300.52V10329.16z"/>
		<path class="st23" d="M8536.03,10329.16h667.33v261.52h-366.69v186.39h345.71v255.44h-345.71v192.39h372.7v255.51h-673.34
			V10329.16z"/>
		<path class="st23" d="M10357.45,10329.16h465.99v1151.23h-300.62v-904.73h-165.37V10329.16z"/>
	</g>
</g>
<g class="st1">
	<path class="st24" d="M6916.62,4770.92c-630.78,80.65-1171.23,639.85-1085.01,1373.67c74.29,632.17,648.24,1168.6,1373.19,1085.56
		c631.58-72.33,1165.69-640.68,1087.5-1373.53C8225.55,5231.06,7637.91,4678.68,6916.62,4770.92L6916.62,4770.92z"/>
	<path class="st25" d="M3513.29,5450.26c0.03,436.47,78.33,910.06,240.92,1258.22c92.53,2.28,614.63-219.34,739.66-267.33
		c129.19-49.56,669.54-241.75,727.15-291.97c-3-67.96-76.29-255.4-95.78-360.37c-50.56-272.23-32.11-557.55,52.06-820.73
		c26.74-83.59,130.96-295.25,131.55-343.9c-50.58-54.09-567.97-312.57-676.96-372.71c-110.09-60.75-629.43-358.38-711.38-356.3
		c-128.97,284.77-187.24,346.07-283.91,694.43C3560.7,4863.09,3513.25,5149.59,3513.29,5450.26L3513.29,5450.26z"/>
	<path class="st26" d="M4480.2,3882.14c46.7,49.32,873.45,519.76,1005,594.27c76.19,43.16,274.63,181.3,362.1,179.77
		c116.94-295.45,511.89-613.67,819.17-746.7c99.12-42.91,344.76-94.07,403.28-127.4c7.76-99.04-79.03-480.54-102.26-606.06
		l-171.03-908.13c-35.71-59.96-217.36,8.24-289.13,26.42c-662.95,167.99-1332.01,595.07-1748.06,1135.79
		C4704.22,3501.63,4481.73,3785,4480.2,3882.14L4480.2,3882.14z"/>
	<path class="st27" d="M3446.93,7125.58c8.15,149.33,270.14,551.95,344.38,654.62c287.33,397.37,622.88,706.32,1049.44,952.81
		c100.46,58.06,593.07,308.36,714.43,281.28c38.1-68.11,92.55-272.12,118.33-357.92c62.11-206.83,342.17-1044.26,337.03-1137.5
		c-410.78-151.11-684.27-311.54-932.06-661.71c-78.53-110.98-120.25-218.19-187.69-341.14c-89.79-2.97-609.92,243.5-727.23,294.57
		L3446.93,7125.58L3446.93,7125.58z"/>
	<path class="st28" d="M9230.46,6516.75c51.71,21.15,1538.38,103.23,1568.4,67.6c50.35-131.44-17.79-679.66-48.78-835.12
		c-97.07-486.85-282.57-898.06-559.47-1287.8c-86.58-121.87-339.97-433.51-442.96-486.55c-65.26,21.87-431.5,427.87-518.38,523.13
		c-41.36,45.34-84.69,80.25-125.96,125.74l-258.64,273.39c-45.5,50.04-80.76,91.24-127.05,139.42
		c-105.44,109.76-26.63,77.94,137.32,284.38c76.24,96.02,139.59,197.21,199.72,318.18
		C9249.98,6032.17,9192.3,6182.19,9230.46,6516.75L9230.46,6516.75z"/>
	<path class="st29" d="M6077.12,8013.7c-35.17,62.89-416.37,1443.28-412.13,1507.05c138.77,96.39,733.41,142.23,946.41,142.23
		c355.01,0,733.94-71.35,1039.19-177c186.19-64.44,734.11-306.42,800.15-423.46c-17.81-60.51-840.2-1286.75-873.27-1291.87
		c-46.63,11.17-223.62,125.39-304.19,161.59C6667.49,8204.56,6294.01,8013,6077.12,8013.7L6077.12,8013.7z"/>
	<path class="st30" d="M7127.71,2664.05c-11.29,67.86,189.94,1439.36,220.41,1543.99c244.88,20.43,420.98-76.09,853.02,72.43
		c181.54,62.4,323.76,138.01,469.3,244.89c198.19,145.54,94.08,171.99,412.42-188.13l508.61-583.19
		c52.61-65.92,222.17-239.16,244.01-305.94c-50.41-91.13-387.95-315.22-512.17-387.71c-407.52-237.78-867.3-393.78-1353.51-438.74
		C7806.94,2606.61,7243.96,2587.38,7127.71,2664.05L7127.71,2664.05z"/>
	<path class="st31" d="M8031.51,8040.46c11.81,64.33,891.17,1250.91,918.07,1257.49c99.3-13.19,444.66-354.49,518.26-431.03
		c294.17-305.94,566.56-770.84,707.38-1197.46c50.3-152.4,172.08-627.92,158-792.16c-6.78-79.16-81.75-62.12-165.26-67.77
		l-1332.05-104.89c-198.07-4.71,41.95,232.61-347.37,846.69C8275.24,7887.75,8124.05,7920.43,8031.51,8040.46L8031.51,8040.46z"/>
	<path class="st32" d="M6137.59,5346.21l112.47-56.46c-35.41,146.14-74.7,193.51-61.84,370.52
		c74.92,66.34,215.69,93.3,298.25,152.64l-322.36-59.46c-104.58,121.86-119.1,176.13-174.27,349.48l-60.43-111.03
		c-15.4,243.4,95.69,549.91,219.01,677.22l-14.98-116.43c103.37,60.06,192.99,158.66,355.66,174.9l219.31-240.91l-158.43,292.41
		c51.92,103.15,171.02,221.14,274.38,265.05c-3.25,2.26-8.62,0.8-10.52,5.54c-1.91,4.73-8.02,4.19-10.67,5.2
		c-16.03,6.1-14.76,6.2-33.3,11.27c-21.07,5.77-39.78,7.14-66.58,15.14c342.24,73.54,366.39,69.37,709.72,4.21l-115.46-32.3
		c471.3-293.75,174.25-362.56,116.5-573.49c17.66,25.11,82.65,90.19,107.71,118.6c32.51,36.86,93.81,99.08,125.7,127.96
		c170.29-21.31,266.25-134.22,340.31-169.36l-13.69,119.02c122.32-183.99,231.09-378.75,223.37-669.55
		c-2.69,2.73-6.3,3.45-7.45,8.82l-25.77,36.14c-11.64,18.13-21.84,36.93-32.43,50.09c-78.3-273.02-72.68-178.32-161.06-344.38
		l-328.52,58.48l293.7-145.69c14.12-164.88-22.67-244.02-63.89-377.28l109.86,48.61c-56.1-135.81-363.51-376.51-577.77-421.93
		l85.51,92.39c-418.82,22.01-380.31,9.15-402.97,215.09c-6.73,60.96-13.76,117.44-19.78,178.83l-35.89-248.3
		c-1.62-14.93-3.35-35.06-6.8-48.32c0-0.01,9.94-116.52-388.27-93.22c24.25-51.02,49.45-59.99,86.31-96.47
		C6500.73,4958.69,6206.55,5209.1,6137.59,5346.21L6137.59,5346.21z M6565.61,5826.2l187.01,599.82
		c665.97-5.81,601.17,56.49,658.14-119.88l148.76-474.02l-500.08-354.14c-66.88,34.52-175.91,124.85-244.72,175.48
		C6760.86,5693.06,6619.86,5803.51,6565.61,5826.2L6565.61,5826.2z"/>
	<path class="st24" d="M8502.06,11351.61c2.14,136.82-15.89,197.83-133.19,229.99c-152.81,41.9-199-14.31-256.88-73.27l-361.65-2.78
		c43.18,395.85,659.24,480.82,934.36,233.09c146.25-131.7,143.14-335.17,143.14-583.99c0-243.19,0-486.38,0-729.58l-312.04-0.66
		l-0.91,111.81c-56.14-46.87-114.23-101.48-215.79-123.18c-554.84-118.53-775.9,691.56-349.29,983.25
		C8198.62,11566.42,8404.65,11395.76,8502.06,11351.61L8502.06,11351.61z M9469.51,10718.81
		c-296.78,96.19-182.62,612.97,159.62,501.92C9942.85,11118.94,9808.16,10609.04,9469.51,10718.81L9469.51,10718.81z
		 M8191.7,10697.91c-267.87,99.02-151.15,610.92,177.22,475.43C8642.78,11060.36,8512.9,10579.17,8191.7,10697.91L8191.7,10697.91z
		 M5504.32,10720.01c-307.13,107.36-169.74,612.33,167.15,499.07C5978.23,11115.93,5839.71,10602.76,5504.32,10720.01
		L5504.32,10720.01z M9789.3,11405.47l3.48,96.32l323.59,1.46l3.07-1078.85l-322.68,0.03l-0.42,102.25
		c-50.07-22.1-99.06-100.92-244.85-119.87c-308.11-40.04-578.83,209.59-584.23,555.06c-5.8,371.06,243.85,600.19,558.45,563.72
		C9666.39,11509.29,9707.42,11456.61,9789.3,11405.47L9789.3,11405.47z M5827.7,11409.27l0.95,89.67l322.17,4.53l3.89-1078.84
		l-322.13,0.02l-1.17,103.08c-74.89-50.57-120.06-105.82-247.16-121.35c-306.78-37.51-570.6,216.02-580.6,543.78
		c-11.17,366.58,222.67,605.32,546.35,576.4C5691.86,11513.87,5734.07,11457.99,5827.7,11409.27L5827.7,11409.27z M6345.97,11501.5
		l768.84,1.67l4.24-306.47l-419.96-0.13l-3.08-1038.61l-349.28-0.2L6345.97,11501.5L6345.97,11501.5z M4514.83,10157.79
		l-330.77,0.92l-2.74,1341.2l761.5,0.08l0.06-295.57l-421.64-1.06L4514.83,10157.79L4514.83,10157.79z M7263.61,11501.73l43.58,1.65
		l238.04-0.28l41.44-0.69l2.61-1076.05l-325.82-1.66L7263.61,11501.73L7263.61,11501.73z M7381.62,9957.53
		c-250.68,64.48-161.56,451.64,97.38,382.16C7728.04,10272.84,7629.32,9893.82,7381.62,9957.53L7381.62,9957.53z M4514.83,10157.79
		l6.41,1045.56l421.64,1.06l-0.06,295.57l-761.5-0.08l2.74-1341.2c-22.74,14.26-14.51,29.3-14.41,65.97
		c0.87,331.84-13.77,1045.62,2.52,1276.91c53.83,20.75,692.47,17.37,778.58,5.82c8.36-65.54,17.26-259.81-7.55-312.38l-413.85-1.86
		l-1.19-1012.42C4521.09,10153.07,4528.61,10174.68,4514.83,10157.79L4514.83,10157.79z"/>
</g>
<g class="st1">
	<rect x="3181.03" y="3433.65" class="st33" width="7829.15" height="6260.63"/>
	<path class="st34" d="M9630.97,6733.01c0,13.51-13.53,27.02-40.58,40.53l-13.5,13.56v13.51c0,13.51,0,13.51-13.54,27.02
		l-27.04,13.56c-13.51,0-27.05,0-27.05,0v-13.56l-27.04,13.56v13.51c0,13.51,0,13.51-13.54,27.02l-27.04,13.56
		c-13.51,0-27.04,0-27.04,0v-13.56c-94.64,54.09-216.35,94.67-324.52,148.75v13.56c0,13.51,0,13.51-13.51,27.02l-27.04,13.51
		c-13.54,0-27.07,0-27.07,0l-13.51-13.51l-40.58,13.51l13.54,13.56c0,13.51,0,13.51-13.54,27.02l-27.04,13.51
		c-13.51,0-27.05,0-27.05,0l-13.5-13.51c-54.09,27.07-108.18,27.07-148.75-54.09c-13.5-40.58-13.5-121.68-27.04-162.26
		c-13.51-27.07-40.55-27.07-40.55-27.07c-513.84-94.61-676.1,13.56-1014.15-67.59c-108.17-27.02-162.26-121.68-283.97-121.68
		c-270.43-13.51-351.56,0-662.57-13.51c-13.51,40.53-13.51,54.09-13.51,54.09h-1054.7l162.26,81.1l54.08,459.76
		c0,0-40.58,13.51-54.08,13.51c13.51,94.66,13.51,216.34,27.04,324.52c0,94.66,13.51,202.83,13.51,270.43
		c0,27.07,0,67.64-27.05,121.73c-13.51,40.58-54.08,67.59-81.13,81.1c-13.51,13.56-54.08,40.58-94.63,67.64
		c-54.09,27.02-108.18,54.08-135.22,67.59c0,13.51,13.51,27.02,13.51,40.58c-635.52,310.96-1433.31,405.62-1690.23,905.96
		c-27.04,54.09-135.21,27.02-135.21-40.58c0-27.02,0-67.59,0-94.66h-13.54c-13.51,0-13.51-13.51-13.51-27.02v-27.07
		c0-13.51,13.51-27.02,13.51-27.02h13.54c0-27.07,13.51-54.09,13.51-81.16h-13.51c-13.54,0-13.54-13.51,0-27.02l13.51-27.07
		c0-13.51,13.54-27.02,27.05-13.51h13.53c40.55-108.18,135.22-148.75,175.79-256.92l0,0c-13.54,0-13.54-13.51,0-27.02l-13.54-27.07
		c0-13.51,13.54-27.07,27.05-13.51h13.53c0-13.56,13.51-27.07,27.05-40.58h-13.54c-13.51,0-13.51-13.51,0-27.07l13.54-27.02
		c13.51-13.51,13.51-13.51,27.04-13.51l0,0l0,0l0,0l13.51-13.56c40.58-27.02,94.66-27.02,135.21,0
		c40.58,27.07,202.84,108.17,351.58-27.02c243.39-229.85,540.86-527.35,757.21-540.86c-54.08-121.73-162.26-392.16-175.76-500.33
		l-67.62-13.51c-40.55-81.16-135.21-459.76-162.26-757.21c0,0-27.04-311.01,0-419.18c-13.53,0-54.08,27.02-54.08,27.02
		c-40.58-94.66,94.63-933.02,216.34-1176.38l202.84-81.15c-27.04,0-162.26-13.51-540.88-40.58
		c-216.35,189.33-446.22,392.16-581.44,500.33c-27.05,13.51-54.09,135.24-54.09,135.24s-54.09,54.08-121.68,94.61
		c-81.16,54.08-256.92,94.66-297.5,27.07c-13.51-13.51-13.51-27.07,0-27.07c27.04-27.02,135.21-81.11,175.79-148.75
		c-54.09,27.07-121.71,67.64-175.79,54.14c-27.05,0-40.56-54.14,0-67.64c81.12-27.02,135.21-54.09,189.3-108.18
		c40.58-67.59,94.66-108.17,175.79-108.17c0,0,351.58-459.76,554.4-676.1c54.09-54.08,162.26-40.53,162.26-40.53l13.54-67.64
		c0,0,703.12-81.1,1041.17,27.07c-13.51-202.84,81.13-459.76,392.14-459.76c162.26,0,392.14,148.75,432.71,311.01
		c13.51,54.09-27.05,94.66-40.58,162.26c-27.05,108.17,13.53,216.34,0,243.41c-13.51,27.02-40.55,27.02-67.6,67.59
		c-27.04,40.58-67.62,121.68-67.62,121.68l-40.58,94.66l-216.34-13.51c-81.13,175.76-243.39,527.35-297.48,878.89l0,0
		c175.79,13.56,960.04,121.73,960.04,121.73l13.54,67.59c0,0,324.51,40.58,594.95,162.26c54.08,13.51,216.37-13.51,311.01,40.58
		l27.04-27.07c351.58,108.17,649.06,297.5,987.11,378.65c0,0,162.26,40.53,216.35,54.08c121.71,27.02,202.83,27.02,270.43,40.53
		c108.17,13.56,175.79,13.56,243.39,13.56C9536.31,6665.37,9617.44,6651.86,9630.97,6733.01 M10144.78,5664.75
		c-243.39,0-432.69,189.33-432.69,432.74c0,243.36,189.3,432.69,432.69,432.69c243.39,0,432.71-189.33,432.71-432.69
		C10577.5,5854.07,10374.66,5664.75,10144.78,5664.75z"/>
	<path class="st35" d="M3871.59,10658.88c0,148.7-70.62,228.56-258.3,228.56h-434.86v-839.91h418.15c195.11,0,262,76.15,262,219.25
		c0,107.77-40.87,157.96-156.11,185.83l-22.29,5.61l18.59,3.7C3830.72,10491.62,3871.59,10539.96,3871.59,10658.88z
		 M3379.14,10398.71h176.54c70.62,0,100.34-29.72,100.34-102.22c0-76.15-29.72-105.87-100.34-105.87h-176.54V10398.71z
		 M3669.03,10638.42c0-76.15-31.6-109.57-102.19-109.57h-187.7v217.39h187.7C3641.17,10744.39,3669.03,10712.77,3669.03,10638.42z
		 M4009.11,10614.25v-566.73h209.99v559.32c0,92.91,42.75,128.23,156.11,128.23s156.08-35.32,156.08-128.23v-559.32h210.01v564.88
		c0,197.03-115.23,288.09-364.24,288.09C4122.49,10902.34,4009.11,10811.29,4009.11,10614.25z M5720.63,10047.52v839.91h-254.6
		l-356.78-607.66v607.66h-195.13v-839.91h254.57l356.82,607.66v-607.66H5720.63z M5893.44,10047.52h373.52
		c293.62,0,371.67,120.78,371.67,418.08c0,289.89-83.63,419.98-371.67,419.98h-373.52V10047.52z M6261.39,10727.63
		c122.65,0,161.68-63.14,161.68-260.12c0-195.18-39.02-258.32-161.68-258.32h-159.81v518.44H6261.39z M6791.02,10047.52h587.22
		v159.76h-377.23v176.57h314.04v157.96h-314.04v183.97h386.53v159.8h-596.52V10047.52z M7510.18,10854.01v-163.51
		c100.37,33.42,191.4,46.43,280.61,46.43c96.64,0,139.37-26.07,139.37-91.06c0-55.78-18.56-74.35-94.76-89.21l-139.37-29.72
		c-144.95-29.72-193.26-89.21-193.26-232.3c0-183.98,107.78-263.88,327.07-263.88c98.47,0,191.38,16.76,267.58,46.48v163.51
		c-91.06-31.57-172.82-44.58-254.59-44.58c-104.07,0-137.49,27.87-137.49,92.91c0,53.88,24.14,70.6,91.03,83.66l135.67,29.72
		c157.96,33.42,200.68,87.31,200.68,237.81c0,180.27-111.5,262.07-336.35,262.07
		C7694.17,10902.34,7597.54,10885.58,7510.18,10854.01z M8275.81,10047.52h209.99v678.25h360.54v159.8h-568.68L8275.81,10047.52z
		 M8976.4,10047.52h209.99v839.91H8976.4V10047.52z M10054.23,10402.46v457.1c-78.03,26.02-182.1,42.78-289.9,42.78
		c-291.77,0-429.29-128.23-429.29-434.84c0-302.9,137.52-434.89,429.29-434.89c104.07,0,202.56,16.76,276.88,46.48v161.66
		c-81.75-27.87-172.81-44.58-260.17-44.58c-176.52,0-230.43,70.6-230.43,269.43c0,206.29,57.61,275.03,223.02,275.03
		c37.15,0,74.3-1.85,109.62-7.4v-185.82h-156.08v-144.95H10054.23z M10738.08,10710.87h-328.89l-59.49,176.57h-208.14l299.2-839.91
		h267.6l299.2,839.91h-210.01L10738.08,10710.87z M10574.55,10179.41l-120.75,379.15h241.53L10574.55,10179.41z"/>
</g>
<path id="path44_1_" class="st36" d="M8050.79,10655.73l29.42-124.74h238.46v939.25c0,183.43-51.32,311.83-172.4,407.2
	c-91.66,69.71-216.51,121.03-366.86,121.03c-205.48,0-352.22-69.71-469.6-183.43l150.45-209.14
	c73.37,69.71,172.4,132.11,300.8,132.11c201.77,0,289.77-99.08,289.77-245.83v-69.71c-80.64,84.4-176.01,117.37-282.41,117.37
	c-278.85,0-498.97-227.48-498.97-517.26c0-286.22,227.48-506.28,506.28-506.28C7889.47,10516.36,7992.16,10571.33,8050.79,10655.73
	 M7808.78,10762.18c-143.03,0-256.85,110-256.85,260.41c0,143.08,113.82,256.8,256.85,256.8s256.75-113.71,256.75-256.8
	C8065.53,10872.19,7951.81,10762.18,7808.78,10762.18 M6256.91,9129.57c-113.77,0-209.19,66.06-231.14,172.45h454.86
	C6458.68,9199.28,6367.02,9129.57,6256.91,9129.57 M6271.59,9925.68c-304.46,0-528.28-209.09-528.28-513.6
	c0-275.19,201.77-520.97,520.97-520.97c238.46,0,484.28,179.72,484.28,513.6c0,25.66,0,58.74-7.32,95.37h-719.08
	c25.61,110.06,124.74,183.53,245.77,183.53c110.06,0,194.46-40.4,264.17-113.82l165.08,168.74
	C6590.84,9859.62,6436.73,9925.68,6271.59,9925.68 M9320.21,9129.57c-113.71,0-209.04,66.06-231.14,172.45h454.91
	C9522.03,9199.28,9430.27,9129.57,9320.21,9129.57 M9334.95,9925.68c-304.46,0-528.28-209.09-528.28-513.6
	c0-275.19,201.77-520.97,520.97-520.97c238.46,0,484.28,179.72,484.28,513.6c0,25.66,0,58.74-7.32,95.37h-719.13
	c25.76,110.06,124.79,183.53,245.82,183.53c110,0,194.4-40.4,264.17-113.82l165.03,168.74
	C9654.09,9859.62,9499.98,9925.68,9334.95,9925.68 M10020.95,10743.79c-113.71,0-209.09,66.06-231.09,172.45h454.91
	C10222.72,10813.5,10131,10743.79,10020.95,10743.79 M10035.63,11539.84c-304.56,0-528.28-209.09-528.28-513.6
	c0-275.19,201.77-520.97,520.97-520.97c238.46,0,484.33,179.72,484.33,513.6c0,25.66,0,58.74-7.47,95.37H9786.2
	c25.66,110.06,124.74,183.43,245.77,183.43c110.06,0,194.45-40.34,264.17-113.72l165.03,168.74
	C10354.77,11473.84,10200.77,11539.84,10035.63,11539.84 M5523.14,10743.79c-113.77,0-209.09,66.05-231.14,172.45h454.91
	C5724.97,10813.5,5633.25,10743.79,5523.14,10743.79 M5537.83,11539.84c-304.46,0-528.28-209.09-528.28-513.6
	c0-275.19,201.72-520.97,520.86-520.97c238.51,0,484.33,179.72,484.33,513.6c0,25.66,0,58.74-7.32,95.37h-719.13
	c25.71,110.06,124.85,183.43,245.88,183.43c110,0,194.35-40.34,264.17-113.71l165.03,168.74
	C5857.02,11473.84,5702.96,11539.84,5537.83,11539.84 M4030.06,11514.19v-1456.45h289.77v1181.31h631.02v275.14L4030.06,11514.19z
	 M5134.29,9900.02v-983.25h234.8l29.42,143.08c43.95-91.77,131.95-154.06,249.43-154.06c25.66,0,51.32,3.61,77.03,10.97v260.46
	c-33.08-7.32-62.29-11.03-95.37-11.03c-132.06,0-223.77,80.74-223.77,238.46v495.31h-271.54L5134.29,9900.02z M9918.26,9900.02
	v-983.25H10153l29.37,143.08c44.05-91.77,132.06-154.06,249.48-154.06c25.71,0,51.32,3.61,77.08,10.97v260.46
	c-33.08-7.32-62.34-11.03-95.42-11.03c-132.06,0-223.72,80.74-223.72,238.46v495.31h-271.54V9900.02z M8021.53,9320.31
	c0-106.4-58.69-172.45-150.45-172.45c-106.35,0-161.38,66.05-161.38,176.16v575.94h-271.48v-579.65
	c0-106.4-58.69-172.45-150.4-172.45c-106.4,0-161.43,66.05-161.43,176.16v575.94H6854.9v-983.2h238.46l29.42,128.4
	c0,0,58.69-154.06,242.11-154.06c113.82,0,209.14,47.66,275.19,146.79l7.37,10.97l7.37-10.97
	c95.42-135.77,212.8-146.79,286.17-146.79c209.09,0,352.17,157.77,352.17,381.54v627.37h-271.48v-579.71L8021.53,9320.31
	L8021.53,9320.31z M8568.15,8784.76c-95.37,0-168.74-73.42-168.74-165.14c0-95.37,73.37-168.74,168.74-168.74
	s168.74,73.32,168.74,168.74C8736.9,8711.29,8663.53,8784.76,8568.15,8784.76 M8428.78,8916.77h271.43v983.14h-271.43V8916.77z
	 M6649.42,10762.18c-146.79,0-256.75,110-256.75,260.41c0,143.08,109.95,256.8,256.75,256.8c143.08,0,253.14-113.71,253.14-256.8
	C6902.56,10872.19,6792.51,10762.18,6649.42,10762.18 M6594.4,11539.84c-260.46,0-487.89-238.46-487.89-517.26
	c0-275.14,227.43-506.28,487.89-506.28c146.79,0,245.77,51.32,304.51,143.03l29.37-128.4h238.46v983.2h-238.46l-29.37-124.79
	C6840.17,11477.5,6730.16,11539.84,6594.4,11539.84 M8931.35,11539.84c-216.46,0-480.52-117.37-480.52-484.23v-524.68h271.38v506.28
	c0,168.74,77.13,242.11,209.14,242.11c121.03,0,209.14-84.34,209.14-242.11v-506.28h271.48v524.68
	C9411.98,11422.47,9144.15,11539.84,8931.35,11539.84 M4319.83,9133.28h168.8c146.79,0,253.14-80.69,253.14-227.48
	c0-146.85-106.35-223.82-253.14-223.82h-168.8V9133.28z M4030.06,9900.02V8406.83h473.2c308.17,0,539.31,183.43,539.31,498.97
	c0,319.14-227.48,506.28-539.31,506.28h-183.43v487.94H4030.06z"/>
<path id="path56_1_" class="st36" d="M8819.03,5139.33c-131.67,107.91-243.3,168.05-243.3,168.05l1.52,342.03
	c94.12,102.46,186.98,187.35,256.49,342.03C8965.67,5759.8,8940.3,5419.25,8819.03,5139.33 M8711.97,6258.99
	c0,0-26.89-141.07-141.31-272.74l-261.06,6.19c0,0-351.88,295.01-566.51,301.94c0,0,118.22,214.58,178.1,326.69
	c117.97-25.25,325.75-116.07,409.47-211.11c0,0,55.31,173.99,44.91,379.41C8493.03,6723.04,8654.89,6542.87,8711.97,6258.99
	 M8375.56,5641.25l-0.49-340.8c0,0-156.03-48.76-322.45-174.73c-334.38,49.25-739.28,377.43-739.28,377.43
	s136.75,253.19,286.43,526.42c263.09,35.89,650.74-288.33,775.82-388.32 M9267.34,7060.38l-215.14-232.4
	c-61.4,628.14-376.75,1161.48-955.94,1533.46l-88.54-338.82c-491.67,346.49-1335.48,571.21-2060.31,171.26
	c90.06-447.96,169.98-901.86-1.52-1445.36c-401.35,606.36-756.54,843.95-756.54,843.95
	c-271.21-444.25-246.85-1335.47-165.92-1597.81l-451.33,136.37c0-299.47,220.97-934.78,541.14-1291.66l-281.86-44.05h-0.28
	c191.54-381.88,477.47-711.05,827.32-958.29l0.49-0.28c-105.03,161.86-106.55,561.31,201.19,713.27
	c-130.66-223.49-146.39-499.69-9.89-642.74c136.49-144.29,366.09-94.79,512.73,17.08c-43.64-124.74-171.5-281.65-363.05-292.29
	h-0.28c361.78-181.66,772.52-283.87,1207.11-283.87c81.18,0,162.12,3.46,241.27,10.39l0,0c126.34,49.5,311.8,223.24,398.31,331.39
	c0,0,6.09-127.46-66.47-281.4c470.62,111.87,695.14,298.72,789.26,388.81c19.28,198.49,80.17,317.53,160.59,506.12
	c-152.47-166.56-535.56-435.34-718.48-499.69c0,0-14.97,172.01-77.89,254.67c-364.31-256.4-543.17-321-543.17-321
	c-399.83,55.93-657.09,206.41-796.87,324.71l121.78,101.22c-241.02,72.27-397.55,274.22-397.55,274.22
	c1.77,3.72,215.39,33.41,215.39,33.41s-21.82,244.77,292.26,398.22c269.18,131.42,656.07-31.68,1020.38,110.88
	c-239.49-269.77-405.16-390.3-405.16-390.3s-95.14-19.3-162.11-18.81c-83.72,0.49-208.54,16.58-345.29-35.39
	c-65.46-25-141.82-69.05-201.69-105.68c0,0,168.2-168.54,414.04-205.67c0,0,221.73,60.88,397.3,187.6
	c116.7-110.88,238.48-107.41,238.48-107.41s-120.76,109.89-84.23,243.04c175.31,152.46,365.58,370.74,365.58,370.74
	c193.83-103.45,615.22-79.69,701.74,18.31c-109.6-138.84-267.65-254.67-389.94-353.67c-14.97-51.97-148.42-233.14-170.99-249.97
	c0,0,126.85,38.11,240.25,137.36c32.47-45.29,93.36-91.33,176.32-111.62c85.24,69.79,100.46,176.96,98.18,194.78
	c-38.31,44.8-76.36,63.11-76.36,63.11l205.5,217.05l20.55-155.67c473.41,659.57,731.42,1422.84,399.58,2382.37 M5528.73,2886.16
	c272.98,122.01,448.29,275.95,480.26,299.47c-14.46-68.8-68.25-399.95-99.2-605.61c159.07,107.66,528.21,357.63,649.73,438.8
	c49.47-148.74,220.97-634.57,220.97-634.57s310.02,489.54,363.05,568.99c64.69-66.08,435.1-468.26,531-569.98
	c15.98,231.41,37.8,562.3,43.38,612.05c18.52-24.5,160.34-218.54,398.06-397.23c-103,197.99-152.22,471.23-174.04,690.75
	c-233.91-63.61-480.76-97.76-734.97-97.76c-488.37,0-947.06,125.23-1343.6,345.25C5791.31,3324.22,5678.42,3060.39,5528.73,2886.16"
	/>
</svg>
