<?xml version="1.0" encoding="utf-8"?>
<!-- Generator: Adobe Illustrator 24.0.0, SVG Export Plug-In . SVG Version: 6.00 Build 0)  -->
<svg version="1.1" id="Capa_1" xmlns="http://www.w3.org/2000/svg" xmlns:xlink="http://www.w3.org/1999/xlink" x="0px" y="0px"
	 viewBox="0 0 14400 14400" style="enable-background:new 0 0 14400 14400;" xml:space="preserve">
<style type="text/css">
	.st0{fill:#FFFFFF;}
	.st1{display:none;}
	.st2{display:inline;fill:#002D71;}
	.st3{display:inline;fill:#009246;}
	.st4{display:inline;fill:#E3E3E2;}
	.st5{display:inline;fill:#CE2B37;}
	.st6{display:inline;fill:url(#SVGID_1_);}
	.st7{display:inline;fill:url(#SVGID_2_);}
	.st8{display:inline;fill:url(#SVGID_3_);}
	.st9{display:inline;fill:url(#SVGID_4_);}
	.st10{display:inline;fill:url(#SVGID_5_);}
	.st11{display:inline;fill:url(#SVGID_6_);}
	.st12{display:inline;fill:#008FD7;}
	.st13{display:inline;}
	.st14{fill:url(#SVGID_7_);}
	.st15{fill:url(#SVGID_8_);}
	.st16{fill:url(#SVGID_9_);}
	.st17{fill:url(#SVGID_10_);}
	.st18{fill:url(#SVGID_11_);}
	.st19{fill:url(#SVGID_12_);}
	.st20{fill:url(#SVGID_13_);}
	.st21{fill:url(#SVGID_14_);}
	.st22{fill:url(#SVGID_15_);}
	.st23{fill:url(#SVGID_16_);}
	.st24{fill:#465B65;}
	.st25{display:inline;fill-rule:evenodd;clip-rule:evenodd;fill:#010101;}
	.st26{display:inline;fill-rule:evenodd;clip-rule:evenodd;fill:#004AD1;}
	.st27{display:inline;fill-rule:evenodd;clip-rule:evenodd;fill:#980184;}
	.st28{display:inline;fill-rule:evenodd;clip-rule:evenodd;fill:#0091FC;}
	.st29{display:inline;fill-rule:evenodd;clip-rule:evenodd;fill:#FE7D02;}
	.st30{display:inline;fill-rule:evenodd;clip-rule:evenodd;fill:#01AB02;}
	.st31{display:inline;fill-rule:evenodd;clip-rule:evenodd;fill:#FE0000;}
	.st32{display:inline;fill-rule:evenodd;clip-rule:evenodd;fill:#FFE500;}
	.st33{display:inline;fill-rule:evenodd;clip-rule:evenodd;fill:#FFFFFF;}
	.st34{display:inline;fill:#D20515;}
	.st35{display:inline;fill:#FFFFFF;}
	.st36{fill:#3D195B;}
</style>
<path class="st0" d="M10108.77,12417.82H4205.9c-961.02,0-1740.08-779.06-1740.08-1740.08V3658.26
	c0-961.02,779.06-1740.08,1740.08-1740.08h5902.88c961.02,0,1740.08,779.06,1740.08,1740.08v7019.48
	C11848.85,11638.76,11069.79,12417.82,10108.77,12417.82z"/>
<g class="st1">
	<path class="st2" d="M4345.79,11992.22L4345.79,11992.22c-88.06-37.74-150.95-75.48-188.69-113.22c0-12.58,0-25.16,0-25.16
		l125.79-150.95c0,0,12.58-12.58,25.16,0c100.64,75.47,201.27,113.21,301.91,113.21c125.79,0,188.69-50.32,188.69-138.37
		c0-62.9-37.74-100.64-176.11-125.8h-62.9c-239.01-37.74-364.81-150.95-364.81-352.22c0-100.64,37.74-188.7,113.22-251.59
		c62.9-62.9,176.11-100.64,301.91-100.64c150.95,0,289.33,37.74,389.96,125.8c12.58,0,12.58,12.58,0,25.16l-100.64,150.96
		c-12.58,12.58-12.58,12.58-25.16,12.58c-88.06-62.89-176.11-100.63-264.17-100.63c-100.64,0-163.53,62.9-163.53,125.79
		c0,75.48,62.9,113.22,188.69,125.8l50.32,12.58c251.59,37.74,377.39,150.95,377.39,352.23c0,213.85-176.11,352.22-465.44,352.22
		C4509.32,12029.96,4433.84,12017.38,4345.79,11992.22"/>
	<path class="st2" d="M5226.35,10885.23L5226.35,10885.23c0-12.58,0-12.58,25.16-12.58h742.19c12.58,0,12.58,0,12.58,12.58v176.11
		c0,12.58,0,25.16-12.58,25.16h-503.18c-12.58,0-12.58,0-12.58,12.58v226.43c0,0,0,12.58,12.58,12.58h415.12
		c12.58,0,12.58,0,12.58,12.58v176.11c0,12.58,0,25.16-12.58,25.16h-415.12c-12.58,0-12.58,0-12.58,0v239.01
		c0,12.58,0,12.58,12.58,12.58h503.18c12.58,0,12.58,0,12.58,12.58v188.7c0,12.58,0,12.58-12.58,12.58h-742.19
		c-25.16,0-25.16,0-25.16-12.58V10885.23"/>
	<path class="st2" d="M6849.11,12017.38L6849.11,12017.38c-12.58,0-25.16,0-25.16-12.58l-201.27-427.71h-150.95
		c-12.58,0-12.58,12.58-12.58,12.58v415.13c0,12.58,0,12.58-25.16,12.58h-213.85c-12.58,0-12.58,0-12.58-12.58v-1119.58
		c0-12.58,0-12.58,12.58-12.58h465.44c113.22,0,213.85,37.74,289.33,100.64c62.9,62.9,113.21,150.96,113.21,251.59
		c0,150.95-88.06,264.17-213.85,327.07l239.01,452.86c0,0,0,12.58-25.16,12.58H6849.11 M6673,11375.83L6673,11375.83
		c100.64,0,163.53-62.9,163.53-150.95c0-75.48-62.9-138.38-163.53-138.38h-201.27c-12.58,0-12.58,0-12.58,12.58v264.17
		c0,0,0,12.58,12.58,12.58H6673z"/>
	<path class="st2" d="M7289.39,10885.23L7289.39,10885.23c0-12.58,0-12.58,12.58-12.58h213.85c12.58,0,12.58,0,12.58,12.58v1119.58
		c0,12.58,0,12.58-12.58,12.58h-213.85c-12.58,0-12.58,0-12.58-12.58V10885.23"/>
	<path class="st2" d="M7767.41,10885.23L7767.41,10885.23c0-12.58,12.58-12.58,12.58-12.58h754.77c0,0,12.58,0,12.58,12.58v176.11
		c0,12.58-12.58,25.16-12.58,25.16h-503.18c0,0-12.58,0-12.58,12.58v226.43l12.58,12.58h415.12c12.58,0,25.16,0,25.16,12.58v176.11
		c0,12.58-12.58,25.16-25.16,25.16h-415.12h-12.58v239.01c0,12.58,12.58,12.58,12.58,12.58h503.18c0,0,12.58,0,12.58,12.58v188.7
		c0,12.58-12.58,12.58-12.58,12.58h-754.77c0,0-12.58,0-12.58-12.58V10885.23"/>
	<path class="st2" d="M9478.23,10885.23L9478.23,10885.23c0-12.58,0-12.58,25.16-12.58h201.27c25.16,0,25.16,0,25.16,12.58
		l402.54,1119.58c0,12.58,0,12.58-25.16,12.58h-213.85c-12.58,0-25.16,0-25.16-12.58l-62.9-201.28h-415.13l-62.9,201.28
		c0,12.58,0,12.58-25.16,12.58h-226.43c0,0,0,0,0-12.58L9478.23,10885.23 M9465.65,11589.68h264.17l-125.8-402.55h-12.58
		L9465.65,11589.68z"/>
	<polyline class="st3" points="4219.99,9979.5 6169.81,9979.5 6169.81,10218.51 4219.99,10218.51 4219.99,9979.5 	"/>
	<polyline class="st4" points="6169.81,9979.5 8107.06,9979.5 8107.06,10218.51 6169.81,10218.51 6169.81,9979.5 	"/>
	<polyline class="st5" points="8107.06,9979.5 10056.89,9979.5 10056.89,10218.51 8107.06,10218.51 8107.06,9979.5 	"/>
	<linearGradient id="SVGID_1_" gradientUnits="userSpaceOnUse" x1="6766.7554" y1="5068.8945" x2="7778.895" y2="7824.1631">
		<stop  offset="0" style="stop-color:#0C5EAD"/>
		<stop  offset="1" style="stop-color:#033B82"/>
	</linearGradient>
	<polygon class="st6" points="7138.63,4506.11 7138.63,7656.36 8270.84,7656.36 	"/>
	<linearGradient id="SVGID_2_" gradientUnits="userSpaceOnUse" x1="7426.4399" y1="6336.8643" x2="6543.3198" y2="6072.8389">
		<stop  offset="0" style="stop-color:#0C5EAD"/>
		<stop  offset="1" style="stop-color:#033B82"/>
	</linearGradient>
	<polygon class="st7" points="6005.85,7656.36 7138.63,7656.36 7138.63,4506.61 	"/>
	<linearGradient id="SVGID_3_" gradientUnits="userSpaceOnUse" x1="9681.3438" y1="7314.8369" x2="6969.3931" y2="9060.8877">
		<stop  offset="0" style="stop-color:#0C5EAD"/>
		<stop  offset="1" style="stop-color:#033B82"/>
	</linearGradient>
	<polygon class="st8" points="10030.95,7656.36 7138.63,9428.66 8270.84,7656.36 	"/>
	<linearGradient id="SVGID_4_" gradientUnits="userSpaceOnUse" x1="7814" y1="7467.1719" x2="6812.8276" y2="9200.6826">
		<stop  offset="0" style="stop-color:#0C5EAD"/>
		<stop  offset="1" style="stop-color:#033B82"/>
	</linearGradient>
	<polygon class="st9" points="7138.63,7656.36 8270.84,7656.36 7138.63,9428.66 	"/>
	<linearGradient id="SVGID_5_" gradientUnits="userSpaceOnUse" x1="4636.7822" y1="7341.7031" x2="7263.001" y2="9034.5615">
		<stop  offset="0" style="stop-color:#0C5EAD"/>
		<stop  offset="1" style="stop-color:#033B82"/>
	</linearGradient>
	<polygon class="st10" points="4244,7656.36 7138.63,9428.66 6005.85,7656.36 	"/>
	<linearGradient id="SVGID_6_" gradientUnits="userSpaceOnUse" x1="6624.4761" y1="8492.4199" x2="7293.0952" y2="7851.2788">
		<stop  offset="0" style="stop-color:#0C5EAD"/>
		<stop  offset="1" style="stop-color:#033B82"/>
	</linearGradient>
	<polygon class="st11" points="7138.63,9428.66 7138.63,7656.36 6005.85,7656.36 	"/>
	<path class="st12" d="M10031.73,7656.36L10031.73,7656.36L7729.68,2280.83c-528.34,0-654.14,0-1195.06,0L4245.15,7656.36h1761.13
		L7138.44,4507.4l526.25,1459.22h-526.25l-301.91,905.73h1153.14l280.93,784H10031.73"/>
</g>
<g class="st1">
	<g class="st13">
		<g>
			
				<radialGradient id="SVGID_7_" cx="8505.9434" cy="10201.2773" r="5746.8281" gradientTransform="matrix(1 0 0 -1 0 14401)" gradientUnits="userSpaceOnUse">
				<stop  offset="0" style="stop-color:#A7BDC8"/>
				<stop  offset="1" style="stop-color:#465B65"/>
			</radialGradient>
			<path class="st14" d="M3367.45,5092.88c127.6-409.33,328.08-744.15,598.2-774.13c517.39-57.47,1120.38,810.53,1225.88,1830.87
				c97.53,943.45-123.25,1976.23-640.76,2033.71c-314.99,34.99-606.8-93.31-833.13-583.31c349.15,95.81,791.95-44.53,791.95-44.53
				c157.36-509.27,156.1-1446.2,156.1-1446.2c-323.33-855.28-675.84-1247.95-675.84-1247.95S3633.84,4941.69,3367.45,5092.88z"/>
		</g>
		
			<radialGradient id="SVGID_8_" cx="8506.0186" cy="10201.293" r="5746.918" gradientTransform="matrix(1 0 0 -1 0 14401)" gradientUnits="userSpaceOnUse">
			<stop  offset="0" style="stop-color:#A7BDC8"/>
			<stop  offset="1" style="stop-color:#465B65"/>
		</radialGradient>
		<path class="st15" d="M3781.49,7075.35c-203.52,24.48-407.46-278.52-455.35-676.71c-47.9-398.16,78.39-740.87,281.92-765.27
			c203.51-24.54,407.44,278.38,455.35,676.57C4111.36,6708.15,3985.06,7050.78,3781.49,7075.35z"/>
		
			<radialGradient id="SVGID_9_" cx="8505.9395" cy="10201.2705" r="5746.896" gradientTransform="matrix(1 0 0 -1 0 14401)" gradientUnits="userSpaceOnUse">
			<stop  offset="0" style="stop-color:#A7BDC8"/>
			<stop  offset="1" style="stop-color:#465B65"/>
		</radialGradient>
		<path class="st16" d="M8426.22,5118.21c42.75,372.63-219.52,708.6-585.52,750.55c-366.19,42.03-697.61-225.96-740.21-598.59
			c-42.77-372.47,219.47-708.49,585.57-750.53C8052.18,4477.61,8383.6,4745.72,8426.22,5118.21z"/>
		<g>
			
				<radialGradient id="SVGID_10_" cx="8505.9717" cy="10201.2734" r="5746.8662" gradientTransform="matrix(1 0 0 -1 0 14401)" gradientUnits="userSpaceOnUse">
				<stop  offset="0" style="stop-color:#A7BDC8"/>
				<stop  offset="1" style="stop-color:#465B65"/>
			</radialGradient>
			<path class="st17" d="M9643.63,4983.94c-129.74-1131.8-1100.7-1950.16-2168.7-1827.73
				c-1067.9,122.43-1828.37,1139.3-1698.64,2271.19c111.54,973.22,845.3,1714.7,1727.96,1825.36c0,0-16.95-195.05-39.27-389.29
				c-22.11-193.14-49.53-383.72-49.53-383.72l-231.3,24.74c0,0-266.77-255.01-474.81-550.7c-194.6-276.67-331.41-595.4-331.41-595.4
				s98.57-349.75,229.03-671.69c132.57-327.42,296.78-627.22,296.78-627.22s311.41-73.75,632.96-110.65
				c343.71-39.34,699.07-42.09,699.07-42.09s239.81,237.01,438.88,520.1c204.02,289.97,367.35,626,367.35,626
				s-44.13,320.17-174.73,642.59c-132.43,326.94-351.09,656.22-351.09,656.22l-207.97,34.47c0,0,27.64,183.49,41.49,371.92
				c14.83,198.66,24.09,395.03,24.09,395.03C9208.41,6845.56,9755.23,5957.25,9643.63,4983.94z"/>
		</g>
		
			<radialGradient id="SVGID_11_" cx="8505.9795" cy="10201.2803" r="5746.8589" gradientTransform="matrix(1 0 0 -1 0 14401)" gradientUnits="userSpaceOnUse">
			<stop  offset="0" style="stop-color:#A7BDC8"/>
			<stop  offset="1" style="stop-color:#465B65"/>
		</radialGradient>
		<path class="st18" d="M9254.98,3289.76c-491.47-442.41-898.48-789.29-892.73-810.52c2.76-10.26,123.99,42.23,314.76,140.57
			c110.56,57,398.84,215.04,713.63,492.58c507.11,447.1,773.23,933.69,766.86,953.11
			C10148.62,4092.65,9746.57,3732.05,9254.98,3289.76z"/>
		<g>
			
				<radialGradient id="SVGID_12_" cx="8505.9834" cy="10201.2607" r="5746.8989" gradientTransform="matrix(1 0 0 -1 0 14401)" gradientUnits="userSpaceOnUse">
				<stop  offset="0" style="stop-color:#A7BDC8"/>
				<stop  offset="1" style="stop-color:#465B65"/>
			</radialGradient>
			<path class="st19" d="M5729.01,2403.77c-265.21,92.74-491.32,207.85-696.08,329.16c276.58-54.55,812.89-172.14,1312.03-486.88
				C6188.59,2266.02,5935.73,2331.45,5729.01,2403.77z"/>
			
				<radialGradient id="SVGID_13_" cx="8506.0234" cy="10201.2676" r="5746.9717" gradientTransform="matrix(1 0 0 -1 0 14401)" gradientUnits="userSpaceOnUse">
				<stop  offset="0" style="stop-color:#A7BDC8"/>
				<stop  offset="1" style="stop-color:#465B65"/>
			</radialGradient>
			<path class="st20" d="M7528.85,2286.43c-19.23-55.92-356.52-112.46-787.8-85.37c87.06,15.15,178.89,41.62,240.87,80.94
				l-956.29,429.62l-1143.6,300.25c0,0-68.79-5.09-142.99-79.28c-296.96,226.61-485.77,430.33-480.3,478.37
				c11.15,97.88,790.08-82.97,1693.14-393.52C6854.94,2707.01,7560.93,2379.59,7528.85,2286.43z"/>
		</g>
		
			<radialGradient id="SVGID_14_" cx="8505.8887" cy="10201.2852" r="5746.981" gradientTransform="matrix(1 0 0 -1 0 14401)" gradientUnits="userSpaceOnUse">
			<stop  offset="0" style="stop-color:#A7BDC8"/>
			<stop  offset="1" style="stop-color:#465B65"/>
		</radialGradient>
		<path class="st21" d="M10100.52,6308.2c117.82-838.2,287.66-1524.08,370.19-1495.59c51.26,17.64,267.72,749.2,147.63,1591.79
			c-100.2,703.25-433.67,1451.85-574.71,1443.41C9956.39,7842.68,9982.46,7146.41,10100.52,6308.2z"/>
		<g>
			
				<radialGradient id="SVGID_15_" cx="8505.998" cy="10201.2334" r="5746.833" gradientTransform="matrix(1 0 0 -1 0 14401)" gradientUnits="userSpaceOnUse">
				<stop  offset="0" style="stop-color:#A7BDC8"/>
				<stop  offset="1" style="stop-color:#465B65"/>
			</radialGradient>
			<path class="st22" d="M6336.79,9466.68c-420.2-85.33-631.27-250.2-689.7-478.69c-129.01-504.39,689.48-969.41,1703.53-1124.31
				c926.98-141.57,1723.78,155.74,1807.69,500.41c65.2,267.81-60.12,483.52-414.57,716.88c59.82-357.06,16.17-579.88,16.17-579.88
				c-521.5-138.75-1337.97-215.14-1337.97-215.14c-878.46,332.95-1264.8,632.89-1264.8,632.89S6186.93,9217.09,6336.79,9466.68z"/>
		</g>
		
			<radialGradient id="SVGID_16_" cx="8505.9697" cy="10201.1631" r="5746.7212" gradientTransform="matrix(1 0 0 -1 0 14401)" gradientUnits="userSpaceOnUse">
			<stop  offset="0" style="stop-color:#A7BDC8"/>
			<stop  offset="1" style="stop-color:#465B65"/>
		</radialGradient>
		<path class="st23" d="M8260,9025.45c28.68,179.49-269.03,376.46-665.11,439.81c-396.01,63.37-740.41-30.8-769.04-210.33
			c-28.74-179.46,268.91-376.42,664.99-439.81C7886.88,8751.68,8231.15,8845.86,8260,9025.45z"/>
	</g>
	<g class="st13">
		<path class="st24" d="M2711.43,12093.92V10778.9h343.25v1016.31h415.45v298.72h-758.71V12093.92z"/>
		<path class="st24" d="M4024.64,12093.92V10778.9h343.33v1315.02H4024.64z"/>
		<path class="st24" d="M5617.7,10730.86c264.34,0,458.26,103,594.01,329.61l-274.77,151.04c0,0-89.22-181.89-322.67-181.89
			c-224.97,0-326.1,183.6-326.1,422.24c0,223.16,102.93,401.73,356.98,401.73c145.9,0,279.84-111.6,291.78-233.47h-302.09v-274.74
			h659.22c0,0,0,44.71,0,72.16c0,389.64-180.21,724.39-672.95,724.39c-418.87,0-686.66-320.96-686.66-703.8
			C4934.47,11034.75,5234.93,10730.86,5617.7,10730.86z"/>
		<path class="st24" d="M7191.83,10778.9c0,0,0,540.79,0,806.92c0,175.06,106.47,236.9,236.85,236.9
			c125.32,0,233.47-67.01,233.47-219.75c0-266.15,0-556.21,0-824.08h346.84c0,0,0,545.91,0,841.24
			c0,300.36-204.4,511.52-587.17,511.52c-289.96,0-573.26-151.04-573.26-473.78c0-303.89,0-878.98,0-878.98h343.27V10778.9z"/>
		<path class="st24" d="M8645.82,10778.9h762.27v298.73h-418.86v212.91h394.89v291.78h-394.89v219.76h425.72v291.86h-769.13V10778.9
			z"/>
		<path class="st24" d="M10726.37,10778.9h532.29v1315.02h-343.39v-1033.45h-188.9V10778.9z"/>
	</g>
</g>
<g class="st1">
	<path class="st25" d="M6874.74,3933.84c-791.11,101.15-1468.92,802.48-1360.79,1722.82c93.17,792.85,813,1465.63,1722.22,1361.49
		c792.12-90.72,1461.98-803.52,1363.92-1722.65C8516.38,4510.93,7779.37,3818.16,6874.74,3933.84L6874.74,3933.84z"/>
	<path class="st26" d="M2606.37,4785.85c0.03,547.41,98.24,1141.37,302.16,1578.03c116.05,2.86,770.86-275.09,927.66-335.28
		c162.03-62.16,839.72-303.2,911.97-366.18c-3.77-85.23-95.68-320.31-120.13-451.96c-63.41-341.42-40.27-699.27,65.29-1029.34
		c33.54-104.83,164.25-370.29,164.98-431.31c-63.43-67.84-712.34-392.02-849.02-467.45c-138.08-76.19-789.41-449.47-892.2-446.86
		c-161.75,357.15-234.83,434.04-356.07,870.93C2665.83,4049.43,2606.32,4408.75,2606.37,4785.85L2606.37,4785.85z"/>
	<path class="st27" d="M3819.04,2819.15c58.57,61.85,1095.46,651.88,1260.44,745.32c95.56,54.12,344.44,227.39,454.14,225.46
		c146.67-370.55,642-769.66,1027.39-936.5c124.31-53.81,432.39-117.98,505.78-159.78c9.74-124.22-99.12-602.68-128.25-760.11
		L6724.03,794.59c-44.79-75.2-272.61,10.33-362.62,33.14c-831.46,210.69-1670.57,746.33-2192.37,1424.48
		C4100,2341.92,3820.97,2697.32,3819.04,2819.15L3819.04,2819.15z"/>
	<path class="st28" d="M2523.14,6887c10.22,187.29,338.8,692.24,431.91,821.01c360.36,498.37,781.2,885.84,1316.18,1195
		c125.99,72.82,743.81,386.73,896.02,352.78c47.79-85.42,116.08-341.28,148.4-448.89c77.89-259.4,429.14-1309.69,422.7-1426.62
		c-515.19-189.51-858.19-390.72-1168.97-829.9c-98.5-139.19-150.82-273.65-235.39-427.86c-112.61-3.73-764.95,305.39-912.07,369.44
		L2523.14,6887L2523.14,6887z"/>
	<path class="st29" d="M9776.71,6123.41c64.85,26.53,1929.39,129.47,1967.05,84.78c63.15-164.85-22.31-852.41-61.18-1047.39
		c-121.74-610.6-354.39-1126.32-701.68-1615.13c-108.58-152.85-426.38-543.69-555.55-610.21
		c-81.85,27.43-541.18,536.63-650.14,656.1c-51.87,56.87-106.22,100.65-157.97,157.71l-324.38,342.88
		c-57.06,62.76-101.29,114.43-159.34,174.86c-132.24,137.66-33.4,97.75,172.22,356.67c95.62,120.42,175.07,247.33,250.48,399.05
		C9801.19,5515.67,9728.85,5703.82,9776.71,6123.41L9776.71,6123.41z"/>
	<path class="st30" d="M5821.87,8000.86c-44.11,78.88-522.2,1810.12-516.89,1890.11c174.05,120.89,919.82,178.38,1186.96,178.38
		c445.25,0,920.49-89.49,1303.33-221.99c233.52-80.82,920.7-384.3,1003.52-531.09c-22.34-75.9-1053.76-1613.81-1095.23-1620.23
		c-58.48,14.01-280.46,157.26-381.5,202.67C6562.29,8240.22,6093.89,7999.97,5821.87,8000.86L5821.87,8000.86z"/>
	<path class="st31" d="M7139.49,1291.46c-14.17,85.11,238.22,1805.21,276.43,1936.43c307.12,25.62,527.98-95.43,1069.83,90.84
		c227.69,78.26,406.05,173.09,588.58,307.14c248.57,182.53,117.99,215.71,517.25-235.95l637.88-731.42
		c65.98-82.68,278.63-299.95,306.03-383.71c-63.22-114.3-486.56-395.34-642.35-486.25c-511.11-298.22-1087.75-493.87-1697.54-550.25
		C7991.36,1219.42,7285.29,1195.29,7139.49,1291.46L7139.49,1291.46z"/>
	<path class="st32" d="M8273.01,8034.41c14.81,80.69,1117.68,1568.86,1151.42,1577.11c124.54-16.54,557.69-444.59,649.99-540.59
		c368.94-383.71,710.57-966.77,887.18-1501.82c63.09-191.14,215.81-787.52,198.16-993.5c-8.51-99.28-102.52-77.91-207.27-84.99
		l-1670.62-131.55c-248.42-5.9,52.61,291.74-435.67,1061.9C8578.7,7842.89,8389.08,7883.87,8273.01,8034.41L8273.01,8034.41z"/>
	<path class="st33" d="M5897.71,4655.36l141.06-70.81c-44.4,183.28-93.69,242.7-77.56,464.69
		c93.96,83.2,270.51,117.02,374.06,191.44l-404.3-74.58c-131.17,152.83-149.38,220.9-218.57,438.31l-75.79-139.26
		c-19.32,305.26,120.01,689.68,274.68,849.36l-18.78-146.03c129.64,75.32,242.04,198.99,446.06,219.35l275.06-302.14l-198.69,366.73
		c65.11,129.36,214.49,277.35,344.11,332.42c-4.08,2.83-10.81,1.01-13.19,6.94c-2.4,5.94-10.05,5.26-13.38,6.53
		c-20.1,7.66-18.51,7.78-41.77,14.13c-26.42,7.24-49.89,8.96-83.5,18.99c429.23,92.23,459.52,87,890.12,5.28l-144.81-40.51
		c591.1-368.42,218.53-454.71,146.11-719.26c22.15,31.49,103.65,113.11,135.09,148.75c40.78,46.23,117.66,124.26,157.66,160.49
		c213.57-26.73,333.93-168.33,426.81-212.41l-17.17,149.27c153.41-230.76,289.83-475.02,280.15-839.74
		c-3.37,3.42-7.9,4.32-9.34,11.06l-32.32,45.33c-14.6,22.74-27.39,46.31-40.67,62.82c-98.2-342.41-91.15-223.64-201.99-431.91
		l-412.02,73.34l368.35-182.72c17.71-206.78-28.44-306.05-80.13-473.18l137.78,60.96c-70.35-170.33-455.9-472.21-724.63-529.18
		l107.24,115.87c-525.27,27.6-476.98,11.48-505.4,269.76c-8.44,76.45-17.26,147.29-24.81,224.28l-45.01-311.41
		c-2.03-18.73-4.2-43.97-8.53-60.6c0-0.02,12.46-146.13-486.96-116.91c30.41-63.99,62.02-75.24,108.25-120.99
		C6353.15,4169.33,5984.19,4483.4,5897.71,4655.36L5897.71,4655.36z M6434.51,5257.34l234.54,752.28
		c835.24-7.29,753.97,70.85,825.42-150.35l186.58-594.5l-627.19-444.16c-83.88,43.29-220.62,156.58-306.93,220.08
		C6679.4,5090.37,6502.56,5228.89,6434.51,5257.34L6434.51,5257.34z"/>
	<path class="st25" d="M8863.17,12187.19c2.68,171.6-19.93,248.11-167.05,288.44c-191.65,52.55-249.58-17.95-322.17-91.9
		l-453.57-3.48c54.15,496.47,826.8,603.04,1171.85,292.33c183.42-165.17,179.53-420.37,179.53-732.43c0-305,0-610.01,0-915.02
		l-391.35-0.83l-1.14,140.23c-70.41-58.79-143.27-127.27-270.64-154.5c-695.86-148.66-973.12,867.33-438.07,1233.17
		C8482.6,12456.58,8741,12242.56,8863.17,12187.19L8863.17,12187.19z M10076.52,11393.54c-372.22,120.64-229.04,768.78,200.2,629.5
		C10670.17,11895.37,10501.25,11255.86,10076.52,11393.54L10076.52,11393.54z M8473.92,11367.33
		c-335.96,124.19-189.57,766.2,222.26,596.28C9039.66,11821.9,8876.76,11218.41,8473.92,11367.33L8473.92,11367.33z
		 M5103.47,11395.04c-385.19,134.65-212.89,767.97,209.64,625.92C5697.84,11891.59,5524.11,11247.99,5103.47,11395.04
		L5103.47,11395.04z M10477.59,12254.73l4.37,120.81l405.83,1.83l3.85-1353.07l-404.7,0.04l-0.52,128.24
		c-62.79-27.71-124.24-126.57-307.09-150.33c-386.42-50.21-725.96,262.86-732.73,696.15c-7.28,465.38,305.83,752.74,700.39,707.01
		C10323.44,12384.94,10374.9,12318.87,10477.59,12254.73L10477.59,12254.73z M5509.05,12259.49l1.2,112.46l404.06,5.68l4.88-1353.05
		l-404.01,0.03l-1.46,129.28c-93.92-63.42-150.57-132.71-309.99-152.19c-384.75-47.04-715.64,270.93-728.17,681.99
		c-14.01,459.76,279.27,759.18,685.22,722.9C5338.68,12390.69,5391.62,12320.6,5509.05,12259.49L5509.05,12259.49z
		 M6159.04,12375.17l964.27,2.09l5.31-384.37l-526.7-0.17l-3.86-1302.6l-438.06-0.25L6159.04,12375.17L6159.04,12375.17z
		 M3862.47,10689.91l-414.84,1.15l-3.44,1682.09l955.06,0.1l0.07-370.7l-528.81-1.33L3862.47,10689.91L3862.47,10689.91z
		 M7309.93,12375.45l54.66,2.07l298.54-0.35l51.97-0.87l3.27-1349.55l-408.63-2.08L7309.93,12375.45L7309.93,12375.45z
		 M7457.93,10438.76c-314.4,80.87-202.63,566.44,122.13,479.29C7892.41,10834.22,7768.59,10358.86,7457.93,10438.76
		L7457.93,10438.76z M3862.47,10689.91l8.04,1311.31l528.81,1.33l-0.07,370.7l-955.06-0.1l3.44-1682.09
		c-28.52,17.89-18.2,36.75-18.07,82.74c1.1,416.19-17.27,1311.4,3.16,1601.47c67.51,26.03,868.47,21.78,976.48,7.29
		c10.48-82.2,21.64-325.85-9.47-391.78l-519.04-2.33l-1.49-1269.75C3870.33,10684,3879.76,10711.11,3862.47,10689.91
		L3862.47,10689.91z"/>
</g>
<g class="st1">
	<rect x="1917.17" y="2227.58" class="st34" width="10357.72" height="8282.62"/>
	<path class="st35" d="M10450.23,6592.52c0,17.87-17.9,35.74-53.68,53.62l-17.87,17.94v17.87c0,17.87,0,17.87-17.91,35.74
		l-35.77,17.94c-17.87,0-35.78,0-35.78,0v-17.94l-35.77,17.94v17.87c0,17.87,0,17.87-17.91,35.74l-35.77,17.94
		c-17.87,0-35.78,0-35.78,0v-17.94c-125.21,71.56-286.22,125.24-429.33,196.79v17.94c0,17.87,0,17.87-17.87,35.74l-35.78,17.87
		c-17.91,0-35.81,0-35.81,0l-17.87-17.87l-53.68,17.87l17.91,17.93c0,17.87,0,17.87-17.91,35.75l-35.78,17.87
		c-17.87,0-35.78,0-35.78,0l-17.87-17.87c-71.56,35.81-143.11,35.81-196.8-71.56c-17.87-53.68-17.87-160.98-35.77-214.66
		c-17.88-35.81-53.65-35.81-53.65-35.81c-679.8-125.17-894.46,17.94-1341.69-89.42c-143.11-35.75-214.66-160.98-375.68-160.98
		c-357.77-17.87-465.1,0-876.55-17.87c-17.87,53.62-17.87,71.56-17.87,71.56H5190.86l214.66,107.3l71.55,608.24
		c0,0-53.68,17.87-71.55,17.87c17.87,125.23,17.87,286.21,35.77,429.33c0,125.23,17.87,268.34,17.87,357.77
		c0,35.81,0,89.49-35.78,161.05c-17.87,53.68-71.55,89.42-107.33,107.3c-17.87,17.94-71.55,53.68-125.2,89.49
		c-71.56,35.74-143.11,71.55-178.89,89.42c0,17.87,17.87,35.75,17.87,53.68c-840.78,411.38-1896.22,536.62-2236.12,1198.55
		c-35.77,71.56-178.88,35.75-178.88-53.68c0-35.74,0-89.42,0-125.23h-17.91c-17.87,0-17.87-17.87-17.87-35.75v-35.81
		c0-17.87,17.87-35.74,17.87-35.74h17.91c0-35.81,17.87-71.56,17.87-107.37h-17.87c-17.91,0-17.91-17.87,0-35.75l17.87-35.81
		c0-17.87,17.91-35.74,35.78-17.87h17.9c53.65-143.11,178.89-196.8,232.57-339.9l0,0c-17.91,0-17.91-17.87,0-35.74l-17.91-35.82
		c0-17.87,17.91-35.81,35.78-17.87h17.9c0-17.94,17.87-35.82,35.78-53.68h-17.91c-17.87,0-17.87-17.87,0-35.81l17.91-35.75
		c17.87-17.87,17.87-17.87,35.77-17.87l0,0l0,0l0,0l17.87-17.93c53.68-35.75,125.23-35.75,178.88,0
		c53.68,35.81,268.35,143.11,465.14-35.75c321.99-304.09,715.55-697.67,1001.76-715.54c-71.55-161.05-214.66-518.82-232.53-661.92
		l-89.46-17.87c-53.65-107.37-178.88-608.24-214.66-1001.76c0,0-35.77-411.45,0-554.56c-17.9,0-71.55,35.74-71.55,35.74
		c-53.68-125.23,125.2-1234.36,286.21-1556.32l268.35-107.37c-35.77,0-214.66-17.87-715.57-53.68
		c-286.22,250.47-590.34,518.82-769.22,661.92c-35.78,17.87-71.56,178.92-71.56,178.92s-71.56,71.55-160.98,125.17
		c-107.37,71.55-339.9,125.23-393.58,35.81c-17.87-17.87-17.87-35.81,0-35.81c35.77-35.75,178.88-107.3,232.56-196.8
		c-71.56,35.82-161.01,89.49-232.56,71.62c-35.78,0-53.66-71.62,0-89.49c107.32-35.75,178.88-71.56,250.44-143.11
		c53.68-89.42,125.23-143.11,232.56-143.11c0,0,465.14-608.24,733.45-894.46c71.56-71.55,214.66-53.61,214.66-53.61l17.91-89.49
		c0,0,930.2-107.3,1377.44,35.81c-17.87-268.35,107.33-608.24,518.78-608.24c214.66,0,518.78,196.79,572.47,411.45
		c17.87,71.56-35.78,125.23-53.68,214.66c-35.78,143.11,17.9,286.21,0,322.03c-17.87,35.74-53.65,35.74-89.43,89.42
		c-35.78,53.68-89.46,160.98-89.46,160.98l-53.68,125.23l-286.21-17.87c-107.33,232.53-321.99,697.67-393.55,1162.74l0,0
		c232.57,17.93,1270.11,161.05,1270.11,161.05l17.91,89.42c0,0,429.32,53.68,787.1,214.66c71.55,17.87,286.25-17.87,411.45,53.68
		l35.77-35.81c465.14,143.11,858.69,393.58,1305.91,500.94c0,0,214.66,53.62,286.22,71.55c161.01,35.75,268.34,35.75,357.77,53.62
		c143.11,17.93,232.56,17.93,322,17.93C10324.99,6503.03,10432.32,6485.16,10450.23,6592.52 M11129.99,5179.24
		c-322,0-572.43,250.47-572.43,572.5c0,321.96,250.44,572.43,572.43,572.43s572.47-250.47,572.47-572.43
		C11702.46,5429.72,11434.11,5179.24,11129.99,5179.24z"/>
	<path class="st13" d="M2830.76,11786.32c0,196.73-93.43,302.37-341.72,302.37h-575.31v-1111.18h553.2
		c258.12,0,346.62,100.75,346.62,290.06c0,142.58-54.08,208.97-206.52,245.84l-29.48,7.42l24.59,4.89
		C2776.68,11565.04,2830.76,11628.99,2830.76,11786.32z M2179.26,11442.12h233.56c93.43,0,132.75-39.32,132.75-135.23
		c0-100.74-39.32-140.06-132.75-140.06h-233.56V11442.12z M2562.78,11759.25c0-100.74-41.8-144.96-135.2-144.96h-248.32v287.6
		h248.32C2525.91,11899.45,2562.78,11857.62,2562.78,11759.25z M3012.69,11727.29v-749.77h277.81v739.97
		c0,122.92,56.56,169.65,206.52,169.65s206.49-46.73,206.49-169.65v-739.97h277.84v747.32c0,260.67-152.44,381.14-481.88,381.14
		C3162.68,12108.42,3012.69,11987.95,3012.69,11727.29z M5276.98,10977.52v1111.18h-336.83l-472.02-803.91v803.91h-258.15v-1111.18
		h336.79l472.06,803.91v-803.91H5276.98z M5505.6,10977.52h494.16c388.45,0,491.71,159.79,491.71,553.11
		c0,383.52-110.64,555.62-491.71,555.62H5505.6V10977.52z M5992.39,11877.27c162.27,0,213.9-83.53,213.9-344.13
		c0-258.22-51.63-341.75-213.9-341.75h-211.42v685.88H5992.39z M6693.07,10977.52h776.87v211.36h-499.06v233.59h415.46v208.97
		h-415.46v243.39h511.37v211.42h-789.18V10977.52z M7644.49,12044.47v-216.32c132.78,44.22,253.22,61.43,371.24,61.43
		c127.86,0,184.38-34.49,184.38-120.47c0-73.8-24.56-98.36-125.37-118.02l-184.38-39.32c-191.76-39.31-255.67-118.02-255.67-307.33
		c0-243.4,142.58-349.1,432.7-349.1c130.27,0,253.19,22.17,354,61.49v216.32c-120.47-41.77-228.63-58.98-336.82-58.98
		c-137.68,0-181.9,36.87-181.9,122.92c0,71.29,31.94,93.4,120.43,110.67l179.48,39.32c208.97,44.21,265.5,115.51,265.5,314.61
		c0,238.49-147.51,346.71-444.98,346.71C7887.91,12108.42,7760.06,12086.24,7644.49,12044.47z M8657.4,10977.52h277.82v897.31
		h476.98v211.42h-752.34L8657.4,10977.52z M9584.26,10977.52h277.82v1111.18h-277.82V10977.52z M11010.19,11447.09v604.73
		c-103.23,34.42-240.91,56.6-383.53,56.6c-386,0-567.93-169.65-567.93-575.28c0-400.73,181.93-575.35,567.93-575.35
		c137.68,0,267.99,22.18,366.31,61.49v213.87c-108.16-36.87-228.63-58.98-344.2-58.98c-233.53,0-304.85,93.4-304.85,356.45
		c0,272.91,76.22,363.86,295.05,363.86c49.15,0,98.3-2.45,145.03-9.79v-245.84h-206.48v-191.76H11010.19z M11914.9,11855.1h-435.12
		l-78.71,233.59h-275.36l395.84-1111.18h354.03l395.84,1111.18h-277.84L11914.9,11855.1z M11698.55,11152l-159.75,501.61h319.54
		L11698.55,11152z"/>
</g>
<path id="path44_1_" class="st36" d="M8050.79,10655.73l29.42-124.74h238.46v939.25c0,183.43-51.32,311.83-172.4,407.2
	c-91.66,69.71-216.51,121.03-366.86,121.03c-205.48,0-352.22-69.71-469.6-183.43l150.45-209.14
	c73.37,69.71,172.4,132.11,300.8,132.11c201.77,0,289.77-99.08,289.77-245.83v-69.71c-80.64,84.4-176.01,117.37-282.41,117.37
	c-278.85,0-498.97-227.48-498.97-517.26c0-286.22,227.48-506.28,506.28-506.28C7889.47,10516.36,7992.16,10571.33,8050.79,10655.73
	 M7808.78,10762.18c-143.03,0-256.85,110-256.85,260.41c0,143.08,113.82,256.8,256.85,256.8s256.75-113.71,256.75-256.8
	C8065.53,10872.19,7951.81,10762.18,7808.78,10762.18 M6256.91,9129.57c-113.77,0-209.19,66.06-231.14,172.45h454.86
	C6458.68,9199.28,6367.02,9129.57,6256.91,9129.57 M6271.59,9925.68c-304.46,0-528.28-209.09-528.28-513.6
	c0-275.19,201.77-520.97,520.97-520.97c238.46,0,484.28,179.72,484.28,513.6c0,25.66,0,58.74-7.32,95.37h-719.08
	c25.61,110.06,124.74,183.53,245.77,183.53c110.06,0,194.46-40.4,264.17-113.82l165.08,168.74
	C6590.84,9859.62,6436.73,9925.68,6271.59,9925.68 M9320.21,9129.57c-113.71,0-209.04,66.06-231.14,172.45h454.91
	C9522.03,9199.28,9430.27,9129.57,9320.21,9129.57 M9334.95,9925.68c-304.46,0-528.28-209.09-528.28-513.6
	c0-275.19,201.77-520.97,520.97-520.97c238.46,0,484.28,179.72,484.28,513.6c0,25.66,0,58.74-7.32,95.37h-719.13
	c25.76,110.06,124.79,183.53,245.82,183.53c110,0,194.4-40.4,264.17-113.82l165.03,168.74
	C9654.09,9859.62,9499.98,9925.68,9334.95,9925.68 M10020.95,10743.79c-113.71,0-209.09,66.06-231.09,172.45h454.91
	C10222.72,10813.5,10131,10743.79,10020.95,10743.79 M10035.63,11539.84c-304.56,0-528.28-209.09-528.28-513.6
	c0-275.19,201.77-520.97,520.97-520.97c238.46,0,484.33,179.72,484.33,513.6c0,25.66,0,58.74-7.47,95.37H9786.2
	c25.66,110.06,124.74,183.43,245.77,183.43c110.06,0,194.45-40.34,264.17-113.72l165.03,168.74
	C10354.77,11473.84,10200.77,11539.84,10035.63,11539.84 M5523.14,10743.79c-113.77,0-209.09,66.05-231.14,172.45h454.91
	C5724.97,10813.5,5633.25,10743.79,5523.14,10743.79 M5537.83,11539.84c-304.46,0-528.28-209.09-528.28-513.6
	c0-275.19,201.72-520.97,520.86-520.97c238.51,0,484.33,179.72,484.33,513.6c0,25.66,0,58.74-7.32,95.37h-719.13
	c25.71,110.06,124.85,183.43,245.88,183.43c110,0,194.35-40.34,264.17-113.71l165.03,168.74
	C5857.02,11473.84,5702.96,11539.84,5537.83,11539.84 M4030.06,11514.19v-1456.45h289.77v1181.31h631.02v275.14L4030.06,11514.19z
	 M5134.29,9900.02v-983.25h234.8l29.42,143.08c43.95-91.77,131.95-154.06,249.43-154.06c25.66,0,51.32,3.61,77.03,10.97v260.46
	c-33.08-7.32-62.29-11.03-95.37-11.03c-132.06,0-223.77,80.74-223.77,238.46v495.31h-271.54L5134.29,9900.02z M9918.26,9900.02
	v-983.25H10153l29.37,143.08c44.05-91.77,132.06-154.06,249.48-154.06c25.71,0,51.32,3.61,77.08,10.97v260.46
	c-33.08-7.32-62.34-11.03-95.42-11.03c-132.06,0-223.72,80.74-223.72,238.46v495.31h-271.54V9900.02z M8021.53,9320.31
	c0-106.4-58.69-172.45-150.45-172.45c-106.35,0-161.38,66.05-161.38,176.16v575.94h-271.48v-579.65
	c0-106.4-58.69-172.45-150.4-172.45c-106.4,0-161.43,66.05-161.43,176.16v575.94H6854.9v-983.2h238.46l29.42,128.4
	c0,0,58.69-154.06,242.11-154.06c113.82,0,209.14,47.66,275.19,146.79l7.37,10.97l7.37-10.97
	c95.42-135.77,212.8-146.79,286.17-146.79c209.09,0,352.17,157.77,352.17,381.54v627.37h-271.48v-579.71L8021.53,9320.31
	L8021.53,9320.31z M8568.15,8784.76c-95.37,0-168.74-73.42-168.74-165.14c0-95.37,73.37-168.74,168.74-168.74
	s168.74,73.32,168.74,168.74C8736.9,8711.29,8663.53,8784.76,8568.15,8784.76 M8428.78,8916.77h271.43v983.14h-271.43V8916.77z
	 M6649.42,10762.18c-146.79,0-256.75,110-256.75,260.41c0,143.08,109.95,256.8,256.75,256.8c143.08,0,253.14-113.71,253.14-256.8
	C6902.56,10872.19,6792.51,10762.18,6649.42,10762.18 M6594.4,11539.84c-260.46,0-487.89-238.46-487.89-517.26
	c0-275.14,227.43-506.28,487.89-506.28c146.79,0,245.77,51.32,304.51,143.03l29.37-128.4h238.46v983.2h-238.46l-29.37-124.79
	C6840.17,11477.5,6730.16,11539.84,6594.4,11539.84 M8931.35,11539.84c-216.46,0-480.52-117.37-480.52-484.23v-524.68h271.38v506.28
	c0,168.74,77.13,242.11,209.14,242.11c121.03,0,209.14-84.34,209.14-242.11v-506.28h271.48v524.68
	C9411.98,11422.47,9144.15,11539.84,8931.35,11539.84 M4319.83,9133.28h168.8c146.79,0,253.14-80.69,253.14-227.48
	c0-146.85-106.35-223.82-253.14-223.82h-168.8V9133.28z M4030.06,9900.02V8406.83h473.2c308.17,0,539.31,183.43,539.31,498.97
	c0,319.14-227.48,506.28-539.31,506.28h-183.43v487.94H4030.06z"/>
<path id="path56_1_" class="st36" d="M8819.03,5139.33c-131.67,107.91-243.3,168.05-243.3,168.05l1.52,342.03
	c94.12,102.46,186.98,187.35,256.49,342.03C8965.67,5759.8,8940.3,5419.25,8819.03,5139.33 M8711.97,6258.99
	c0,0-26.89-141.07-141.31-272.74l-261.06,6.19c0,0-351.88,295.01-566.51,301.94c0,0,118.22,214.58,178.1,326.69
	c117.97-25.25,325.75-116.07,409.47-211.11c0,0,55.31,173.99,44.91,379.41C8493.03,6723.04,8654.89,6542.87,8711.97,6258.99
	 M8375.56,5641.25l-0.49-340.8c0,0-156.03-48.76-322.45-174.73c-334.38,49.25-739.28,377.43-739.28,377.43
	s136.75,253.19,286.43,526.42c263.09,35.89,650.74-288.33,775.82-388.32 M9267.34,7060.38l-215.14-232.4
	c-61.4,628.14-376.75,1161.48-955.94,1533.46l-88.54-338.82c-491.67,346.49-1335.48,571.21-2060.31,171.26
	c90.06-447.96,169.98-901.86-1.52-1445.36c-401.35,606.36-756.54,843.95-756.54,843.95
	c-271.21-444.25-246.85-1335.47-165.92-1597.81l-451.33,136.37c0-299.47,220.97-934.78,541.14-1291.66l-281.86-44.05h-0.28
	c191.54-381.88,477.47-711.05,827.32-958.29l0.49-0.28c-105.03,161.86-106.55,561.31,201.19,713.27
	c-130.66-223.49-146.39-499.69-9.89-642.74c136.49-144.29,366.09-94.79,512.73,17.08c-43.64-124.74-171.5-281.65-363.05-292.29
	h-0.28c361.78-181.66,772.52-283.87,1207.11-283.87c81.18,0,162.12,3.46,241.27,10.39l0,0c126.34,49.5,311.8,223.24,398.31,331.39
	c0,0,6.09-127.46-66.47-281.4c470.62,111.87,695.14,298.72,789.26,388.81c19.28,198.49,80.17,317.53,160.59,506.12
	c-152.47-166.56-535.56-435.34-718.48-499.69c0,0-14.97,172.01-77.89,254.67c-364.31-256.4-543.17-321-543.17-321
	c-399.83,55.93-657.09,206.41-796.87,324.71l121.78,101.22c-241.02,72.27-397.55,274.22-397.55,274.22
	c1.77,3.72,215.39,33.41,215.39,33.41s-21.82,244.77,292.26,398.22c269.18,131.42,656.07-31.68,1020.38,110.88
	c-239.49-269.77-405.16-390.3-405.16-390.3s-95.14-19.3-162.11-18.81c-83.72,0.49-208.54,16.58-345.29-35.39
	c-65.46-25-141.82-69.05-201.69-105.68c0,0,168.2-168.54,414.04-205.67c0,0,221.73,60.88,397.3,187.6
	c116.7-110.88,238.48-107.41,238.48-107.41s-120.76,109.89-84.23,243.04c175.31,152.46,365.58,370.74,365.58,370.74
	c193.83-103.45,615.22-79.69,701.74,18.31c-109.6-138.84-267.65-254.67-389.94-353.67c-14.97-51.97-148.42-233.14-170.99-249.97
	c0,0,126.85,38.11,240.25,137.36c32.47-45.29,93.36-91.33,176.32-111.62c85.24,69.79,100.46,176.96,98.18,194.78
	c-38.31,44.8-76.36,63.11-76.36,63.11l205.5,217.05l20.55-155.67c473.41,659.57,731.42,1422.84,399.58,2382.37 M5528.73,2886.16
	c272.98,122.01,448.29,275.95,480.26,299.47c-14.46-68.8-68.25-399.95-99.2-605.61c159.07,107.66,528.21,357.63,649.73,438.8
	c49.47-148.74,220.97-634.57,220.97-634.57s310.02,489.54,363.05,568.99c64.69-66.08,435.1-468.26,531-569.98
	c15.98,231.41,37.8,562.3,43.38,612.05c18.52-24.5,160.34-218.54,398.06-397.23c-103,197.99-152.22,471.23-174.04,690.75
	c-233.91-63.61-480.76-97.76-734.97-97.76c-488.37,0-947.06,125.23-1343.6,345.25C5791.31,3324.22,5678.42,3060.39,5528.73,2886.16"
	/>
</svg>
